Music_Celadon_Ch2:
	channel_volume 11
	note_type 12, 3, 0, 15, 1
	rest 8
	octave 3
	note D_, 8

Music_Celadon_Ch2_Menu:
	pitch_inc_switch
Music_Celadon_Ch2_mainloop:
	channel_volume 13
	note_type 12, 2, 12, 1, 6
	octave 3
	note G_, 4
	note B_, 4
	note G_, 2
	note B_, 4
	note G_, 2
	note E_, 1
	note E_, 1
	note G_, 1
	note E_, 1
	note B_, 2
	octave 4
	note C_, 2
	octave 3
	note A_, 4
	rest 4
	note F#, 4
	note A_, 4
	note F#, 2
	note A_, 6
	note A_, 1
	note B_, 1
	octave 4
	note C_, 1
	octave 3
	note B_, 1
	note A_, 2
	note B_, 2
	note G_, 4
	octave 4
	note G_, 4
	octave 3
	note G_, 4
	note B_, 4
	note G_, 2
	note B_, 4
	note G_, 2
	note E_, 1
	note F#, 1
	note G_, 1
	note A_, 1
	note B_, 2
	octave 4
	note C_, 2
	octave 3
	note A_, 4
	rest 4
	note A_, 2
	note B_, 2
	octave 4
	note C_, 2
	octave 3
	note B_, 2
	note A_, 2
	note G_, 2
	note F#, 2
	note G_, 2
	note F#, 4
	note D_, 1
	note E_, 1
	note F#, 1
	note G_, 1
	note A_, 4
	rest 4
	channel_volume 10
	note_type 12, 1, 9, 4, 2
	note B_, 8
	note G_, 4
	note D_, 4
	note G_, 4
	note A_, 2
	octave 4
	note C_, 2
	octave 3
	note B_, 8
	note A_, 8
	note F#, 4
	note G_, 4
	note A_, 4
	note G_, 4
	note F#, 4
	note A_, 4
	note B_, 8
	note G_, 4
	note D_, 4
	note G_, 4
	note A_, 2
	octave 4
	note C_, 2
	octave 3
	note B_, 8
	note A_, 8
	note F#, 4
	note G_, 4
	note A_, 4
	note G_, 4
	note F#, 4
	note A_, 4
	sound_loop 0, Music_Celadon_Ch2_mainloop


Music_Celadon_Ch1:
	tempo 144
	channel_volume 12
	note_type 12, 3, 7, 1, 4
	octave 4
	note D_, 1
	note C#, 1
	note D_, 1
	note E_, 1
	note F#, 1
	note E_, 1
	note F#, 1
	note G_, 1
	channel_volume 14
	note_type 12, 3, 7, 4, 4
	note A_, 8

Music_Celadon_Ch1_Menu:
	tempo 144
Music_Celadon_Ch1_mainloop:
	channel_volume 14
	note_type 12, 2, 1, 1, 6
	octave 4
	note B_, 4
	note G_, 4
	note B_, 2
	note G_, 4
	rest 2
	note B_, 1
	note G_, 1
	note A_, 1
	note B_, 1
	octave 5
	note C_, 2
	octave 4
	note B_, 2
	note A_, 4
	rest 4
	note A_, 4
	note F#, 4
	note A_, 2
	note F#, 4
	rest 2
	note A_, 1
	note G_, 1
	note F#, 1
	note G_, 1
	note A_, 2
	note B_, 2
	note G_, 4
	note B_, 4
	note B_, 4
	note G_, 4
	note B_, 2
	note G_, 4
	octave 3
	note B_, 2
	octave 4
	note B_, 1
	note G_, 1
	note A_, 1
	note B_, 1
	octave 5
	note C_, 2
	octave 4
	note B_, 2
	note A_, 4
	rest 4
	note A_, 2
	note G_, 2
	note F#, 2
	note G_, 2
	note F#, 2
	note E_, 2
	note D_, 2
	note C#, 2
	note D_, 4
	rest 4
	octave 5
	note D_, 4
	rest 4
	channel_volume 11
	note_type 12, 2, 13, 4, 2
	octave 4
	note D_, 8
	note C_, 2
	octave 3
	note B_, 2
	note A_, 2
	note B_, 2
	octave 4
	note E_, 4
	note F#, 4
	note D_, 8
	note C_, 8
	octave 3
	note A_, 2
	note B_, 2
	octave 4
	note C_, 2
	note D_, 2
	note E_, 2
	note C_, 2
	note D_, 2
	note E_, 2
	note D_, 8
	note D_, 8
	note C_, 2
	octave 3
	note B_, 2
	note A_, 2
	note B_, 2
	octave 4
	note E_, 4
	note D_, 2
	note E_, 2
	note D_, 8
	note C_, 8
	note A_, 2
	note G_, 2
	note F#, 2
	note E_, 2
	note F#, 2
	note E_, 2
	note D_, 2
	note E_, 2
	note D_, 8
	sound_loop 0, Music_Celadon_Ch1_mainloop


Music_Celadon_Ch3:
	hill_type 12, 0, 21
	rest 8
	octave 5
	note D_, 1
	note C#, 1
	note D_, 1
	note E_, 1
	note F#, 1
	note E_, 1
	note F#, 1
	note G_, 1

Music_Celadon_Ch3_Menu:
Music_Celadon_Ch3_mainloop:
	hill_type 12, 0, 49
	octave 4
	note D_, 2
	note B_, 2
	note D_, 2
	note B_, 2
	note D_, 2
	note B_, 2
	note D_, 2
	note B_, 2
	note D_, 2
	note B_, 2
	note D_, 2
	note B_, 2
	note D_, 2
	note A_, 2
	note D_, 2
	note A_, 2
	note D_, 2
	note A_, 2
	note D_, 2
	note A_, 2
	note D_, 2
	note A_, 2
	note D_, 2
	note A_, 2
	note D_, 2
	note A_, 2
	note D_, 2
	note A_, 2
	note D_, 2
	note B_, 2
	note D_, 2
	note B_, 2
	note D_, 2
	note B_, 2
	note D_, 2
	note B_, 2
	note D_, 2
	note B_, 2
	note D_, 2
	note B_, 2
	note D_, 2
	note B_, 2
	note D_, 2
	note B_, 2
	note D_, 2
	note A_, 2
	note D_, 2
	note A_, 2
	note D_, 2
	note A_, 2
	note G_, 2
	note A_, 2
	note G_, 2
	note F#, 2
	note E_, 2
	note C#, 2
	note D_, 8
	note F#, 6
	note F#, 2
	note G_, 2
	octave 5
	note D_, 2
	octave 4
	note G_, 2
	octave 5
	note D_, 2
	octave 4
	note G_, 2
	octave 5
	note D_, 2
	octave 4
	note G_, 2
	note B_, 2
	note G_, 2
	octave 5
	note E_, 2
	note D_, 2
	note C_, 2
	note D_, 2
	octave 4
	note B_, 2
	note G_, 2
	octave 5
	note C_, 2
	octave 4
	note F#, 2
	octave 5
	note D_, 2
	octave 4
	note F#, 2
	octave 5
	note D_, 2
	octave 4
	note F#, 2
	octave 5
	note D_, 2
	octave 4
	note F#, 2
	octave 5
	note D_, 2
	octave 4
	note F#, 2
	octave 5
	note E_, 2
	note D_, 2
	note C_, 2
	note D_, 2
	octave 4
	note B_, 2
	note A_, 2
	octave 5
	note C_, 2
	octave 4
	note G_, 2
	octave 5
	note D_, 2
	octave 4
	note G_, 2
	octave 5
	note D_, 2
	octave 4
	note G_, 2
	octave 5
	note D_, 2
	octave 4
	note G_, 2
	note B_, 2
	note G_, 2
	octave 5
	note E_, 2
	note D_, 2
	note C_, 2
	note D_, 2
	octave 4
	note B_, 2
	note G_, 2
	octave 5
	note C_, 2
	octave 4
	note F#, 2
	octave 5
	note D_, 2
	octave 4
	note F#, 2
	octave 5
	note D_, 2
	octave 4
	note F#, 2
	octave 5
	note D_, 2
	octave 4
	note F#, 2
	octave 5
	note D_, 2
	octave 4
	note F#, 2
	octave 5
	note D_, 2
	note C_, 2
	octave 4
	note B_, 2
	note A_, 2
	note G_, 2
	note F#, 2
	note E_, 2
	sound_loop 0, Music_Celadon_Ch3_mainloop


Music_Celadon_Ch4:
	drum_speed 12
	frame_swap
	rest 4
	frame_swap
	rest 4
	frame_swap
	rest 4
	frame_swap
	rest 4

Music_Celadon_Ch4_Menu:
	drum_speed 6
	frame_swap
	rest 3
	frame_swap
	rest 4
	frame_swap
	rest 4
	frame_swap
	rest 4
	frame_swap
	rest 2
	frame_swap
	rest 2
	frame_swap
	rest 2
	frame_swap
	rest 10
	frame_swap
	rest 2
	frame_swap
	rest 2
	frame_swap
	rest 2
	frame_swap
	rest 2
	frame_swap
	rest 2
	frame_swap
	rest 2
	frame_swap
	rest 2
	frame_swap
	rest 2
	frame_swap
	rest 8
	frame_swap
	rest 8
Music_Celadon_Ch4_mainloop:
	frame_swap
	rest 4
	frame_swap
	rest 4
	frame_swap
	rest 4
	frame_swap
	rest 4
	frame_swap
	rest 2
	frame_swap
	rest 2
	frame_swap
	rest 2
	frame_swap
	rest 10
	frame_swap
	rest 2
	frame_swap
	rest 2
	frame_swap
	rest 2
	frame_swap
	rest 2
	frame_swap
	rest 2
	frame_swap
	rest 2
	frame_swap
	rest 2
	frame_swap
	rest 2
	frame_swap
	rest 8
	frame_swap
	rest 8
	sound_loop 2, Music_Celadon_Ch4_mainloop

Music_Celadon_Ch4_loop1:
	frame_swap
	rest 2
	frame_swap
	rest 2
	frame_swap
	rest 2
	frame_swap
	rest 2
	sound_loop 4, Music_Celadon_Ch4_loop1
	frame_swap
	rest 8
	frame_swap
	rest 8
	frame_swap
	rest 8
	frame_swap
	rest 8

Music_Celadon_Ch4_loop2:
	frame_swap
	rest 8
	frame_swap
	rest 8
	frame_swap
	rest 4
	frame_swap
	rest 4
	frame_swap
	rest 4
	frame_swap
	rest 4
	frame_swap
	rest 8
	frame_swap
	rest 8
	frame_swap
	rest 8
	frame_swap
	rest 8
	sound_loop 4, Music_Celadon_Ch4_loop2
	frame_swap
	rest 4
	frame_swap
	rest 4
	frame_swap
	rest 4
	frame_swap
	rest 4
	frame_swap
	rest 2
	frame_swap
	rest 2
	frame_swap
	rest 2
	frame_swap
	rest 10
	frame_swap
	rest 2
	frame_swap
	rest 2
	frame_swap
	rest 2
	frame_swap
	rest 2
	frame_swap
	rest 2
	frame_swap
	rest 2
	frame_swap
	rest 2
	frame_swap
	rest 2
	frame_swap
	rest 8
	frame_swap
	rest 8
	sound_loop 0, Music_Celadon_Ch4_mainloop
