Music_EvolutionDitty_Ch2:
	channel_volume 12
	pitch_inc_switch
	note_type 5, 2, 12, 3, 3
	octave 4
	note D_, 4
	note C_, 4
	octave 3
	note A_, 8
	note_type 5, 2, 12, 3, 4
	octave 4
	note D#, 2
	note D#, 2
	note D_, 2
	note C_, 2
	note C_, 2
	octave 3
	note A#, 2
	note_type 5, 2, 12, 4, 1
	octave 4
	note C_, 8
	sound_ret


Music_EvolutionDitty_Ch1:
	tempo 256
	channel_volume 14
	vibrato 8, 1, 7
	note_type 5, 2, 11, 3, 3
	octave 4
	note A_, 4
	note F_, 4
	note C_, 8
	note_type 5, 2, 11, 3, 4
	note A#, 2
	note A#, 2
	note A#, 2
	note G_, 2
	note G_, 2
	note A#, 2
	note_type 5, 2, 11, 4, 1
	note A_, 8
	sound_ret


Music_EvolutionDitty_Ch3:
	hill_type 5, 0, 87
	octave 5
	note F_, 4
	note D#, 4
	note C_, 8
	hill_type 5, 0, 17
	note D#, 1
	rest 1
	note D#, 1
	rest 1
	note E_, 1
	rest 1
	note F_, 1
	rest 1
	note F_, 1
	rest 1
	note G_, 1
	rest 1
	hill_type 5, 0, 96
	note A_, 8
	sound_ret
