Music_GameCorner_Ch2:
	channel_volume 11
	vibrato 12, 1, 4
	pitch_inc_swith
	note_type 12, 0, 8, 1, 3
	octave 3
	note A_, 6
	note G#, 1
	rest 1
	note F#, 1
	rest 1
	note E_, 1
	rest 1
	note D#, 1
	rest 1
	note C#, 1
	rest 1
	note D#, 1
	rest 15

Music_GameCorner_Ch2_mainloop:
	note_type 12, 0, 8, 2, 4
	octave 3
	note C#, 4
	octave 2
	note G#, 4
	octave 3
	note E_, 4
	octave 2
	note B_, 4
	octave 3
	note A_, 2
	note G#, 8
	note_type 12, 0, 8, 2, 5
	note G#, 2
	note A_, 2
	note B_, 2
	note_type 12, 0, 8, 2, 4
	note G#, 6
	note E_, 2
	note F#, 2
	note E_, 2
	note D#, 2
	note E_, 2
	note_type 12, 0, 8, 4, 4
	note F#, 8
	note D#, 8
	note_type 12, 0, 8, 2, 4
	note D#, 4
	octave 2
	note B_, 4
	octave 3
	note F#, 4
	note D#, 4
	note B_, 2
	note A_, 8
	note_type 12, 0, 8, 2, 5
	octave 4
	note E_, 2
	note D#, 2
	note E_, 2
	note D#, 6
	note C#, 2
	octave 3
	note D#, 2
	note E_, 2
	note F#, 2
	note G_, 2
	note G#, 2
	note_type 12, 0, 8, 1, 3
	note G#, 1
	note G_, 1
	note G#, 1
	note G_, 1
	note G#, 2
	note_type 12, 0, 8, 4, 4
	note F#, 8
	note_type 12, 0, 8, 2, 4
	note C#, 4
	octave 2
	note G#, 4
	octave 3
	note E_, 4
	octave 2
	note B_, 4
	octave 3
	note A_, 2
	note G#, 8
	note_type 12, 0, 8, 2, 5
	note G#, 2
	note A_, 2
	note B_, 2
	note G#, 6
	note E_, 2
	note F#, 2
	note E_, 2
	note D#, 2
	note E_, 2
	note F#, 8
	note D#, 4
	note C#, 4
	note_type 12, 0, 8, 2, 4
	note D#, 4
	octave 2
	note B_, 4
	octave 3
	note F#, 4
	note D#, 4
	note B_, 2
	note A_, 8
	note_type 12, 0, 8, 2, 5
	note F#, 2
	note G#, 2
	note A_, 2
	note B_, 4
	note A_, 4
	note B_, 2
	note A_, 2
	note G#, 2
	note F#, 2
	note E_, 1
	rest 3
	octave 2
	note B_, 1
	rest 3
	octave 3
	note E_, 2
	note E_, 4
	note E_, 2
	rest 2
	note_type 12, 0, 8, 3, 4
	octave 2
	note B_, 2
	octave 3
	note C#, 2
	note D_, 2
	note D#, 10
	octave 2
	note B_, 2
	octave 3
	note C#, 2
	note D#, 2
	note E_, 8
	note_type 12, 0, 8, 2, 5
	octave 4
	note D#, 4
	octave 3
	note B_, 4
	note F#, 4
	note D#, 4
	note_type 12, 0, 8, 3, 3
	note E_, 3
	note D#, 1
	note C#, 2
	note D#, 2
	note E_, 4
	rest 6
	note_type 12, 0, 8, 3, 4
	octave 2
	note B_, 2
	octave 3
	note C#, 2
	note D_, 2
	note D#, 10
	octave 2
	note B_, 2
	octave 3
	note C#, 2
	note D#, 2
	note E_, 8
	note_type 12, 0, 8, 2, 5
	octave 4
	note D#, 4
	octave 3
	note B_, 4
	note F#, 4
	note A_, 4
	note_type 12, 0, 8, 3, 3
	note G#, 2
	note G#, 1
	note G_, 1
	note G#, 1
	note G_, 1
	note G#, 1
	note G_, 1
	note G#, 8
	sound_loop 0, Music_GameCorner_Ch2_mainloop


Music_GameCorner_Ch1:
	tempo 120
	channel_volume 12
	vibrato 10, 1, 3
	note_type 12, 2, 1, 4, 3
	octave 4
	note C#, 6
	octave 3
	note B_, 1
	rest 1
	note A_, 1
	rest 1
	note G#, 1
	rest 1
	note F#, 1
	rest 1
	note E_, 1
	rest 1
	note F#, 1
	rest 1
	note B_, 1
	note A#, 1
	note B_, 1
	note A#, 1
	note B_, 1
	note A#, 1
	note B_, 1
	rest 7

Music_GameCorner_Ch1_mainloop:
	note_type 12, 1, 4, 4, 4
	octave 3
	note E_, 4
	octave 2
	note B_, 4
	octave 3
	note G#, 4
	note E_, 4
	octave 4
	note C#, 2
	octave 3
	note B_, 14
	octave 4
	note E_, 6
	note D#, 2
	note C#, 2
	octave 3
	note B_, 2
	note A_, 2
	note G#, 2
	note A_, 16
	note F#, 4
	note D#, 4
	note A_, 4
	note F#, 4
	octave 4
	note D#, 2
	note C#, 14
	note F#, 6
	note E_, 2
	note D#, 2
	note C#, 2
	octave 3
	note B_, 2
	note A#, 2
	note B_, 16
	note E_, 4
	octave 2
	note B_, 4
	octave 3
	note G#, 4
	note E_, 4
	octave 4
	note C#, 2
	octave 3
	note B_, 14
	octave 4
	note E_, 6
	note D#, 2
	note C#, 2
	octave 3
	note B_, 2
	note A_, 2
	note G#, 2
	note A_, 16
	note F#, 4
	note D#, 4
	note A_, 4
	note F#, 4
	octave 4
	note D#, 2
	note C#, 14
	note F#, 6
	note E_, 2
	note D#, 2
	note E_, 2
	note F#, 2
	note G#, 2
	note E_, 1
	rest 1
	note E_, 1
	note D#, 1
	note E_, 1
	note D#, 1
	note E_, 1
	note D#, 1
	note E_, 1
	rest 1
	octave 3
	note B_, 2
	octave 4
	note C#, 2
	note D_, 2
	note D#, 10
	octave 3
	note B_, 2
	octave 4
	note C#, 2
	note D#, 2
	note E_, 10
	octave 3
	note B_, 2
	octave 4
	note C#, 2
	note D#, 2
	note F#, 4
	note D#, 4
	octave 3
	note B_, 4
	octave 4
	note A_, 4
	note G#, 3
	note A_, 1
	note G#, 2
	note F#, 2
	note E_, 2
	octave 3
	note B_, 2
	octave 4
	note C#, 2
	note D_, 2
	note D#, 10
	octave 3
	note B_, 2
	octave 4
	note C#, 2
	note D#, 2
	note E_, 10
	octave 3
	note B_, 2
	octave 4
	note C#, 2
	note D#, 2
	note F#, 4
	note D#, 4
	note A_, 4
	note F#, 4
	note B_, 16
	sound_loop 0, Music_GameCorner_Ch1_mainloop


Music_GameCorner_Ch3::
	hill_type 12, 0, 17
	octave 5
	note C#, 6
	octave 4
	note F#, 2
	note G#, 2
	note A_, 2
	note A#, 2
	note A#, 2
	note B_, 10
	octave 3
	note B_, 2
	octave 4
	note C#, 2
	note D#, 2

Music_GameCorner_Ch3_mainloop:
	sound_call Music_GameCorner_Ch3_sub1
	sound_call Music_GameCorner_Ch3_sub2
	sound_call Music_GameCorner_Ch3_sub3
	sound_call Music_GameCorner_Ch3_sub4
	sound_call Music_GameCorner_Ch3_sub5
	sound_call Music_GameCorner_Ch3_sub6
	sound_call Music_GameCorner_Ch3_sub7
	note D#, 2
	note A_, 2
	octave 3
	note B_, 2
	octave 4
	note A_, 2
	note D#, 2
	note A_, 2
	note G#, 2
	note F#, 2
	sound_call Music_GameCorner_Ch3_sub1
	sound_call Music_GameCorner_Ch3_sub2
	sound_call Music_GameCorner_Ch3_sub3
	sound_call Music_GameCorner_Ch3_sub4
	sound_call Music_GameCorner_Ch3_sub5
	sound_call Music_GameCorner_Ch3_sub6
	sound_call Music_GameCorner_Ch3_sub7
	note E_, 4
	octave 3
	note B_, 4
	octave 4
	note E_, 2
	note E_, 4
	note B_, 2
	sound_call Music_GameCorner_Ch3_sub5
	sound_call Music_GameCorner_Ch3_sub1
	sound_call Music_GameCorner_Ch3_sub8
	note E_, 2
	note G#, 2
	octave 3
	note B_, 2
	octave 4
	note G#, 2
	note E_, 2
	note G#, 2
	note F#, 2
	note E_, 2
	sound_call Music_GameCorner_Ch3_sub5
	sound_call Music_GameCorner_Ch3_sub1
	sound_call Music_GameCorner_Ch3_sub8
	sound_call Music_GameCorner_Ch3_sub2
	sound_loop 0, Music_GameCorner_Ch3_mainloop

Music_GameCorner_Ch3_sub1:
	note E_, 2
	note G#, 2
	octave 3
	note B_, 2
	octave 4
	note G#, 2
	note E_, 2
	note G#, 2
	octave 3
	note B_, 2
	octave 4
	note G#, 2
	sound_ret

Music_GameCorner_Ch3_sub2:
	note E_, 2
	note G#, 2
	octave 3
	note B_, 2
	octave 4
	note G#, 2
	note E_, 2
	octave 3
	note B_, 2
	octave 4
	note C#, 2
	note D#, 2
	sound_ret

Music_GameCorner_Ch3_sub3:
	note E_, 2
	note B_, 2
	octave 3
	note B_, 2
	octave 4
	note B_, 2
	note E_, 2
	note B_, 2
	octave 3
	note B_, 2
	octave 4
	note B_, 2
	sound_ret

Music_GameCorner_Ch3_sub4:
	note D#, 2
	note A_, 2
	octave 3
	note B_, 2
	octave 4
	note A_, 2
	note D#, 2
	note A_, 2
	octave 3
	note B_, 2
	octave 4
	note A_, 2
	sound_ret

Music_GameCorner_Ch3_sub5:
	note D#, 2
	note F#, 2
	octave 3
	note B_, 2
	octave 4
	note F#, 2
	note D#, 2
	note F#, 2
	octave 3
	note B_, 2
	octave 4
	note F#, 2
	sound_ret

Music_GameCorner_Ch3_sub6:
	note D#, 2
	note F#, 2
	octave 3
	note B_, 2
	octave 4
	note F#, 2
	note D#, 2
	octave 3
	note B_, 2
	octave 4
	note C#, 2
	note D#, 2
	sound_ret

Music_GameCorner_Ch3_sub7:
	note F#, 2
	note B_, 2
	octave 3
	note B_, 2
	octave 4
	note B_, 2
	note F#, 2
	note B_, 2
	octave 3
	note B_, 2
	octave 4
	note B_, 2
	sound_ret

Music_GameCorner_Ch3_sub8:
	note F#, 2
	note A_, 2
	octave 3
	note B_, 2
	octave 4
	note A_, 2
	note F#, 2
	note A_, 2
	octave 3
	note B_, 2
	octave 4
	note A_, 2
	sound_ret
