Music_OaksLab_Ch2:
	channel_volume 12
	vibrato 16, 1, 2
	pitch_inc_switch
	note_type 12, 0, 6, 2, 2
	octave 1
	note B_, 1
	octave 2
	note C#, 1
	note D_, 1
	note E_, 1
	note F#, 1
	note G#, 1
	note A_, 1
	note B_, 1

Music_OaksLab_Ch2_mainloop:
	octave 3
	note C#, 4
	octave 2
	note B_, 2
	octave 3
	note C#, 2
	octave 2
	note A_, 4
	note G#, 2
	note A_, 2
	note B_, 1
	rest 3
	note A_, 6
	note G#, 1
	note B_, 1
	octave 3
	note C#, 4
	octave 2
	note A_, 4
	note G#, 2
	note A_, 2
	note F#, 4
	note E_, 2
	note F#, 2
	note G#, 1
	rest 3
	note F#, 8
	note E_, 4
	note A_, 6
	note E_, 1
	note A_, 1
	octave 3
	note D_, 8
	note C#, 6
	octave 2
	note A_, 1
	octave 3
	note C#, 1
	note E_, 8
	note D_, 4
	note C#, 4
	octave 2
	note B_, 4
	note A_, 4
	note G#, 1
	rest 3
	note E_, 4
	note F#, 4
	note G#, 4
	sound_loop 0, Music_OaksLab_Ch2_mainloop


Music_OaksLab_Ch1:
	tempo 140
	channel_volume 15
	vibrato 10, 1, 5
	note_type 12, 3, 7, 4, 2
	octave 2
	note G#, 1
	note A_, 1
	note B_, 1
	octave 3
	note C#, 1
	note D_, 1
	note E_, 1
	note F#, 1
	note G#, 1

Music_OaksLab_Ch1_mainloop:
	note A_, 6
	note G#, 1
	note F#, 1
	note E_, 6
	note D#, 1
	note E_, 1
	note F#, 1
	rest 3
	note E_, 8
	note E_, 4
	note F#, 6
	note E_, 1
	note D_, 1
	note C#, 6
	octave 2
	note B_, 1
	octave 3
	note C#, 1
	note D_, 1
	rest 3
	note C#, 8
	note C#, 4
	note D_, 6
	octave 2
	note A_, 1
	octave 3
	note D_, 1
	note F#, 8
	note E_, 6
	note C#, 1
	note E_, 1
	note A_, 8
	note G#, 4
	note A_, 2
	note G#, 2
	note F#, 4
	note G#, 2
	note F#, 2
	note E_, 1
	rest 1
	octave 2
	note G#, 1
	rest 1
	note A_, 1
	rest 1
	note B_, 1
	rest 1
	octave 3
	note C#, 1
	rest 1
	note D_, 1
	rest 1
	note E_, 1
	rest 1
	note F#, 1
	rest 1
	sound_loop 0, Music_OaksLab_Ch1_mainloop


Music_OaksLab_Ch3:
	hill_type 12, 0, 17
	rest 2
	octave 4
	note G#, 2
	note F#, 2
	note E_, 2

Music_OaksLab_Ch3_mainloop:
	note C#, 2
	note A_, 4
	note A_, 4
	note A_, 2
	note E_, 2
	note A_, 2
	note C#, 2
	note A_, 4
	note A_, 4
	note A_, 2
	note E_, 2
	note A_, 2
	octave 3
	note A_, 2
	octave 4
	note F#, 4
	note F#, 4
	note F#, 2
	note C#, 2
	note F#, 2
	octave 3
	note A_, 2
	octave 4
	note F#, 4
	note F#, 4
	note F#, 2
	note C#, 2
	note F#, 2
	note D_, 2
	note F#, 4
	note F#, 4
	note F#, 2
	note D_, 2
	note F#, 2
	note E_, 2
	note A_, 4
	note A_, 4
	note A_, 2
	note E_, 2
	note A_, 2
	octave 3
	note B_, 2
	octave 4
	note G#, 4
	note G#, 2
	note D_, 2
	note F#, 4
	note F#, 2
	note E_, 6
	note G#, 4
	note F#, 4
	note E_, 2
	note C#, 2
	note A_, 2
	note C#, 2
	note A_, 2
	note C#, 2
	note A_, 2
	note E_, 2
	note A_, 2
	note C#, 2
	note A_, 2
	note C#, 2
	note A_, 2
	note C#, 2
	note A_, 2
	note C#, 2
	note A_, 2
	octave 3
	note A_, 2
	octave 4
	note F#, 2
	octave 3
	note A_, 2
	octave 4
	note F#, 2
	octave 3
	note A_, 2
	octave 4
	note F#, 2
	note C#, 2
	note F#, 2
	octave 3
	note A_, 2
	octave 4
	note F#, 2
	octave 3
	note A_, 2
	octave 4
	note F#, 2
	octave 3
	note A_, 2
	octave 4
	note F#, 2
	note C#, 2
	note F#, 2
	note D_, 2
	note F#, 2
	note D_, 2
	note F#, 2
	note D_, 2
	note F#, 2
	note D_, 2
	note F#, 2
	note E_, 2
	note A_, 2
	note E_, 2
	note A_, 2
	note E_, 2
	note A_, 2
	note E_, 2
	note A_, 2
	octave 3
	note B_, 2
	octave 4
	note G#, 2
	octave 3
	note B_, 2
	octave 4
	note G#, 2
	note D_, 2
	note F#, 2
	note D_, 2
	note F#, 2
	note E_, 4
	note G#, 4
	note F#, 4
	note E_, 4
	sound_loop 0, Music_OaksLab_Ch3_mainloop
