Music_GameOver_Ch2:
	channel_volume 12
	vibrato 12, 1, 2
	pitch_inc_switch
	note_type 12, 1, 9, 1, 4
	octave 3
	note G_, 1
	note F_, 1
	note E_, 1
	note D_, 1
	note C_, 2
	octave 2
	note B_, 2
	note A_, 2
	octave 3
	note E_, 2
	octave 2
	note G_, 2
	octave 3
	note D_, 2
	note C_, 2
	octave 2
	note B_, 2
	note A_, 2
	note G_, 2
	note_type 12, 1, 9, 1, 15
	note E_, 4
	octave 1
	note G_, 4
	sound_ret

Music_GameOver_Ch1:
	tempo 136
	channel_volume 13
	vibrato 11, 1, 2
	note_type 12, 1, 9, 2, 6
	octave 4
	note C_, 2
	octave 3
	note B_, 2
	note A_, 2
	note G_, 2
	note E_, 1
	note F_, 1
	note G_, 2
	note D_, 1
	note E_, 1
	note F_, 2
	note E_, 2
	note D_, 2
	note C_, 2
	octave 2
	note B_, 2
	note_type 12, 1, 9, 2, 15
	octave 3
	note C_, 4
	octave 2
	note C_, 4
	sound_ret

Music_GameOver_Ch3:
	hill_type 12, 0, 17
	rest 16
	octave 3
	note A_, 1
	note B_, 1
	octave 4
	note C_, 2
	note C_, 1
	note D_, 1
	note E_, 2
	note C_, 4
	octave 5
	note C_, 4
	sound_ret
