Music_GamePoint_Ch2:
	channel_volume 12
	pitch_inc_switch
	vibrato 40, 1, 1
	note_type 12, 2, 12, 1, 8
	octave 3
	note A_, 2
	note A_, 1
	note A#, 1
	octave 4
	note C_, 6
	note C_, 2
	octave 3
	note A_, 2
	octave 4
	note C_, 2
	note D_, 2
	note E_, 2
	note F_, 2
	note G_, 2
	note A_, 8
	sound_ret

Music_GamePoint_Ch1:
	tempo 120
	channel_volume 14
	vibrato 32, 1, 2
	note_type 12, 2, 12, 2, 6
	octave 4
	note F_, 2
	note F_, 1
	note F_, 1
	note F_, 6
	note F_, 2
	note G_, 2
	note A_, 2
	note A#, 3
	octave 5
	note C_, 1
	note D_, 2
	note E_, 2
	note F_, 8
	sound_ret

Music_GamePoint_Ch3:
	hill_type 12, 0, 17
	octave 3
	note F_, 2
	note F_, 1
	note E_, 1
	note F_, 6
	note C_, 2
	note D_, 2
	note E_, 2
	note F_, 3
	note G_, 1
	note A_, 2
	note G_, 2
	note F_, 8
	sound_ret
