Music_Mushroom_Ch2:
	channel_volume 13
	vibrato 12, 1, 2
	note_type 8, 0, 7, 1, 8
	octave 2
	note G_, 4
	note B_, 2
	note A_, 4
	note B_, 2
	octave 3
	note C_, 6
	note D_, 2
	note E_, 2
	note D_, 2
	octave 2
	note G_, 2
	octave 3
	note D_, 2
	note C_, 2
	octave 2
	note B_, 2
	note A_, 2
	note B_, 2
	note G_, 6
	note D_, 6

Music_Mushroom_Ch2_Menu:
	channel_volume 13
	vibrato 12, 1, 2
	pitch_inc_switch
	note_type 8, 0, 7, 1, 8

Music_Mushroom_Ch2_Mainloop:
	octave 2
	sound_call Music_Mushroom_Ch2_Sub1
	note G_, 2
	note A_, 2
	note G_, 2
	note F#, 2
	note E_, 2
	note F#, 2
	note A_, 2
	sound_call Music_Mushroom_Ch2_Sub1
	octave 3
	note D_, 2
	note C_, 2
	octave 2
	note B_, 2
	note A_, 2
	note G_, 2
	note A_, 2
	note B_, 2
	sound_call Music_Mushroom_Ch2_Sub2
	octave 3
	note C_, 4
	octave 2
	note A_, 2
	octave 3
	note C_, 2
	octave 2
	note B_, 2
	note A_, 2
	sound_call Music_Mushroom_Ch2_Sub2
	octave 3
	note C_, 6
	octave 2
	note B_, 6
	sound_call Music_Mushroom_Ch2_Sub3
	note B_, 2
	note A_, 2
	note G_, 2
	note B_, 2
	note A_, 2
	note G_, 2
	sound_call Music_Mushroom_Ch2_Sub3
	note B_, 6
	note A_, 6
	sound_call Music_Mushroom_Ch2_Sub4
	note G_, 4
	note F#, 2
	sound_call Music_Mushroom_Ch2_Sub4
	note B_, 2
	note A_, 2
	note F#, 2
	sound_call Music_Mushroom_Ch2_Sub5
	note B_, 2
	note A_, 2
	note G_, 4
	note F#, 2
	sound_call Music_Mushroom_Ch2_Sub5
	note G_, 2
	note F#, 2
	note B_, 2
	octave 3
	note C_, 2
	octave 2
	note B_, 2
	note A_, 6
	note B_, 6
	sound_call Music_Mushroom_Ch2_Sub6
	octave 2
	note A_, 6
	note E_, 6
	sound_call Music_Mushroom_Ch2_Sub6
	octave 2
	note D_, 4
	note D_, 2
	note B_, 4
	note G_, 2
	note A_, 2
	note G_, 2
	note A_, 2
	note G_, 4
	note F#, 2
	note D_, 2
	note D_, 2
	note D_, 2
	note B_, 4
	note G_, 2
	note A_, 2
	note B_, 2
	note A_, 2
	note F#, 2
	note G_, 2
	note A_, 2
	sound_call Music_Mushroom_Ch2_Sub7
	note G_, 4
	note F#, 2
	sound_call Music_Mushroom_Ch2_Sub7
	note B_, 2
	note A_, 2
	note F#, 2
	note G_, 12
	note A_, 12
	note B_, 16
	rest 6
	note G_, 2
	note A_, 6
	note G_, 6
	note F#, 6
	note E_, 4
	note F#, 2
	note G_, 6
	note A_, 6
	note B_, 6
	octave 1
	note B_, 6
	rest 6
	octave 4
	note D_, 12
	note G_, 12
	note D_, 12
	note G_, 12
	octave 3
	note A_, 12
	octave 4
	note E_, 12
	note F#, 12
	note D_, 6
	octave 2
	note G_, 4
	octave 3
	note G_, 2
	note D_, 6
	octave 2
	note B_, 4
	octave 3
	note D_, 2
	note G_, 6
	octave 2
	note G_, 4
	octave 3
	note E_, 2
	note D_, 6
	octave 2
	note G_, 4
	note B_, 2
	octave 3
	note D_, 6
	octave 2
	note F#, 4
	note A_, 2
	octave 3
	note D_, 6
	octave 2
	note G_, 4
	note B_, 2
	octave 3
	note E_, 6
	octave 2
	note A_, 4
	octave 3
	note F#, 2
	note G_, 4
	note D_, 2
	note A_, 6
	octave 2
	note F#, 6
	rest 4
	note B_, 2
	note B_, 10
	note B_, 2
	note B_, 10
	note B_, 2
	note B_, 6
	octave 3
	note D_, 4
	octave 2
	note A_, 2
	note A_, 10
	octave 3
	note E_, 2
	note E_, 10
	note E_, 2
	note E_, 6
	note D_, 2
	note C#, 2
	note D_, 2
	note E_, 2
	note D_, 2
	note C_, 8
	note D_, 12
	sound_call Music_Mushroom_Ch2_Sub8
	note C_, 12
	sound_call Music_Mushroom_Ch2_Sub8
	note C_, 6
	sound_call Music_Mushroom_Ch2_Sub9
	note G_, 2
	sound_call Music_Mushroom_Ch2_Sub9
	note E_, 2
	sound_call Music_Mushroom_Ch2_Sub10
	octave 1
	note A_, 2
	octave 2
	note D_, 2
	note F#, 2
	sound_call Music_Mushroom_Ch2_Sub10
	note D_, 2
	octave 1
	note A_, 2
	octave 2
	note D_, 2
	octave 1
	note B_, 2
	octave 2
	note D_, 2
	note G_, 2
	note D_, 2
	octave 1
	note B_, 2
	octave 2
	note D_, 2
	note D_, 4
	note G_, 2
	note D_, 4
	note C_, 2
	octave 1
	note B_, 2
	octave 2
	note D_, 2
	note G_, 2
	octave 1
	note B_, 2
	octave 2
	note D_, 2
	note G_, 2
	note D_, 4
	note G_, 2
	note D_, 4
	note C_, 2
	sound_call Music_Mushroom_Ch2_Sub11
	note G_, 4
	note F#, 2
	sound_call Music_Mushroom_Ch2_Sub11
	note B_, 2
	note A_, 2
	note F#, 2
	note D_, 2
	note D_, 2
	note D_, 2
	note B_, 4
	note G_, 2
	note A_, 2
	note E_, 2
	note F#, 2
	note G_, 4
	note F#, 2
	note G_, 2
	note G_, 2
	note G_, 2
	note B_, 4
	note G_, 2
	note A_, 2
	note G_, 2
	note A_, 2
	note G_, 2
	note A_, 4
	sound_loop 0, Music_Mushroom_Ch2_Mainloop

Music_Mushroom_Ch2_Sub1:
	note G_, 6
	note F#, 4
	note D_, 2
	note G_, 6
	note A_, 2
	note F#, 2
	note A_, 2
	note G_, 6
	note B_, 4
	sound_ret

Music_Mushroom_Ch2_Sub2:
	note G_, 4
	note A_, 2
	note B_, 4
	note A_, 2
	sound_ret

Music_Mushroom_Ch2_Sub3:
	note E_, 4
	note B_, 2
	note A_, 4
	note G_, 2
	sound_ret

Music_Mushroom_Ch2_Sub4:
	note D_, 6
	note B_, 4
	note G_, 2
	note A_, 2
	note G_, 2
	note A_, 2
	sound_ret

Music_Mushroom_Ch2_Sub5:
	note D_, 6
	note B_, 4
	note G_, 2
	note A_, 2
	sound_ret

Music_Mushroom_Ch2_Sub6:
	note A_, 4
	note_type 8, 0, 7, 1, 12
	octave 3
	note D_, 2
	note_type 8, 0, 7, 1, 8
	note D_, 6
	sound_ret

Music_Mushroom_Ch2_Sub7:
	note B_, 2
	note B_, 2
	note B_, 2
	note B_, 2
	note A_, 2
	note G_, 2
	note E_, 2
	note E_, 2
	note E_, 2
	sound_ret

Music_Mushroom_Ch2_Sub8:
	octave 2
	note D_, 2
	note D_, 2
	note D_, 2
	note D_, 6
	note E_, 2
	note E_, 2
	note E_, 2
	note E_, 12
	note F#, 6
	sound_ret

Music_Mushroom_Ch2_Sub9:
	octave 1
	note B_, 2
	octave 2
	note D_, 2
	note G_, 2
	note D_, 2
	octave 1
	note B_, 2
	octave 2
	note D_, 2
	octave 1
	note B_, 2
	octave 2
	note D_, 2
	note G_, 2
	octave 1
	note B_, 2
	octave 2
	note D_, 2
	sound_ret

Music_Mushroom_Ch2_Sub10:
	octave 1
	note A_, 2
	octave 2
	note D_, 2
	note F#, 2
	note D_, 2
	octave 1
	note A_, 2
	octave 2
	note D_, 2
	octave 1
	note A_, 2
	octave 2
	note D_, 2
	note F#, 2
	sound_ret

Music_Mushroom_Ch2_Sub11:
	note D_, 6
	note B_, 4
	note G_, 2
	note A_, 2
	note G_, 2
	note A_, 2
	sound_ret

Music_Mushroom_Ch1:
	tempo 152
	channel_volume 13
	vibrato 9, 1, 3
	note_type 8, 3, 4, 1, 8
	octave 3
	note D_, 2
	note G_, 2
	note F#, 2
	note G_, 4
	note D_, 2
	note E_, 2
	note F#, 2
	note G_, 2
	note B_, 4
	note A_, 2
	note G_, 4
	note F#, 2
	note E_, 4
	note F#, 2
	note G_, 6
	octave 2
	note G_, 6

Music_Mushroom_Ch1_Menu:
	tempo 152
	channel_volume 13
	vibrato 9, 1, 3
	note_type 8, 3, 4, 1, 8

Music_Mushroom_Ch1_Mainloop:
	sound_call Music_Mushroom_Ch1_Sub1
	note E_, 4
	note C_, 2
	octave 2
	note B_, 2
	octave 3
	note C_, 2
	note C#, 2
	sound_call Music_Mushroom_Ch1_Sub1
	note A_, 4
	note G_, 2
	note F#, 4
	note D_, 2
	sound_call Music_Mushroom_Ch1_Sub2
	note G_, 6
	note E_, 4
	note G_, 1
	note A_, 1
	sound_call Music_Mushroom_Ch1_Sub2
	note G_, 2
	note A_, 2
	note G_, 2
	note E_, 2
	note F#, 2
	note G_, 2
	note A_, 2
	note G#, 2
	note A_, 2
	note B_, 2
	note A_, 2
	note G_, 2
	note F#, 6
	note D_, 4
	note E_, 1
	note F#, 1
	note A_, 2
	note G#, 2
	note A_, 2
	note E_, 2
	note F#, 2
	note E_, 2
	note D_, 2
	note E_, 2
	note F#, 2
	note D_, 2
	note E_, 2
	note F#, 2
	sound_call Music_Mushroom_Ch1_Sub3
	note C_, 2
	note G_, 2
	note F#, 2
	note G_, 6
	sound_call Music_Mushroom_Ch1_Sub4
	note D_, 4
	octave 3
	note F#, 1
	note G_, 1
	sound_call Music_Mushroom_Ch1_Sub4
	note D_, 6
	octave 3
	sound_call Music_Mushroom_Ch1_Sub3
	note E_, 6
	note G_, 4
	note F#, 2
	octave 2
	note D_, 2
	note D_, 2
	note D_, 2
	note A_, 2
	note G_, 2
	note F#, 2
	note E_, 2
	note E_, 2
	note E_, 2
	octave 3
	note C_, 2
	octave 2
	note B_, 2
	note A_, 2
	note F#, 2
	note F#, 2
	note F#, 2
	octave 3
	note E_, 2
	note D_, 2
	note C_, 2
	octave 2
	note B_, 2
	octave 3
	note C_, 2
	note D_, 2
	note E_, 4
	note D_, 2
	note F#, 2
	note E_, 2
	note F#, 2
	note E_, 2
	note F#, 2
	note E_, 2
	note F#, 4
	note E_, 2
	note D_, 4
	note F#, 2
	note G_, 2
	note F#, 2
	note G_, 2
	note F#, 2
	note G_, 2
	note F#, 2
	note G_, 6
	octave 2
	note G_, 6
	octave 3
	sound_call Music_Mushroom_Ch1_Sub5
	octave 2
	note B_, 6
	octave 3
	note D_, 6
	note D_, 2
	note C#, 2
	note D_, 2
	note E_, 4
	note C_, 2
	octave 2
	note B_, 6
	note G_, 6
	note A_, 2
	note G#, 2
	note A_, 2
	octave 3
	note D_, 4
	note C_, 2
	octave 2
	note B_, 2
	note A#, 2
	note B_, 2
	octave 3
	note E_, 4
	note D_, 2
	sound_call Music_Mushroom_Ch1_Sub6
	note D_, 6
	note F#, 4
	note B_, 1
	octave 4
	note C_, 1
	sound_call Music_Mushroom_Ch1_Sub5
	octave 3
	note B_, 6
	octave 4
	note D_, 6
	note D_, 2
	note C#, 2
	note D_, 2
	note E_, 4
	note C_, 2
	octave 3
	note B_, 6
	note G_, 6
	note A_, 2
	note G#, 2
	note A_, 2
	octave 4
	note D_, 4
	note C_, 2
	octave 3
	note B_, 2
	note A#, 2
	note B_, 2
	octave 4
	note E_, 4
	note D_, 2
	sound_call Music_Mushroom_Ch1_Sub6
	note A_, 6
	octave 3
	note D_, 2
	note E_, 2
	note F#, 2
	note G_, 4
	note F#, 2
	note G_, 4
	note A_, 2
	note B_, 6
	note A_, 4
	note G_, 2
	note B_, 6
	note A_, 4
	note G_, 2
	note A_, 4
	note D_, 2
	note D_, 4
	note A_, 1
	note B_, 1
	octave 4
	note C_, 6
	octave 3
	note B_, 4
	note A_, 2
	octave 4
	note C_, 6
	octave 3
	note B_, 4
	note A_, 2
	note G_, 12
	note F#, 12
	sound_call Music_Mushroom_Ch1_Sub7
	note C_, 6
	note E_, 6
	sound_call Music_Mushroom_Ch1_Sub7
	note C_, 4
	octave 2
	note B_, 2
	note A_, 4
	note G_, 2
	sound_call Music_Mushroom_Ch1_Sub8
	note E_, 6
	note D_, 4
	note E_, 1
	note F#, 1
	sound_call Music_Mushroom_Ch1_Sub8
	note E_, 2
	note F#, 2
	note E_, 2
	note D_, 2
	note E_, 2
	note F_, 2
	sound_call Music_Mushroom_Ch1_Sub6
	note D_, 6
	note F#, 6
	sound_call Music_Mushroom_Ch1_Sub6
	note D_, 2
	note E_, 2
	note F#, 2
	note D_, 2
	note E_, 2
	note F#, 2
	sound_call Music_Mushroom_Ch1_Sub3
	note E_, 2
	note F#, 2
	note G_, 2
	note F#, 2
	note E_, 2
	note D_, 2
	note G_, 4
	note F#, 2
	note G_, 4
	note D_, 2
	note E_, 2
	note D_, 2
	note C_, 2
	octave 2
	note B_, 2
	octave 3
	note C_, 2
	note D_, 2
	note G_, 4
	note F#, 2
	note G_, 4
	note D_, 2
	note C_, 2
	note G_, 2
	note F#, 2
	note G_, 4
	octave 2
	note B_, 1
	octave 3
	note C_, 1
	sound_loop 0, Music_Mushroom_Ch1_Mainloop

Music_Mushroom_Ch1_Sub1:
	octave 3
	note D_, 2
	note D_, 2
	note D_, 2
	note D_, 2
	note C_, 2
	octave 2
	note B_, 2
	octave 3
	note E_, 6
	note F#, 4
	note E_, 2
	note D_, 2
	note G_, 2
	note F#, 2
	note G_, 2
	note F#, 2
	note G_, 2
	sound_ret

Music_Mushroom_Ch1_Sub2:
	note B_, 2
	note A#, 2
	note B_, 2
	octave 4
	note C_, 2
	octave 3
	note B_, 2
	note A_, 2
	sound_ret

Music_Mushroom_Ch1_Sub3:
	note G_, 4
	note F#, 2
	note G_, 4
	note D_, 2
	note E_, 2
	note D_, 2
	note C_, 2
	octave 2
	note B_, 2
	octave 3
	note C_, 2
	note D_, 2
	note G_, 4
	note F#, 2
	note G_, 4
	note D_, 2
	note E_, 2
	note F#, 2
	note G_, 2
	note F#, 2
	note E_, 2
	note D_, 2
	note G_, 4
	note F#, 2
	note G_, 4
	note D_, 2
	note E_, 2
	note D_, 2
	note C_, 2
	octave 2
	note B_, 2
	octave 3
	note C_, 2
	note D_, 2
	note G_, 4
	note F#, 2
	note G_, 4
	note D_, 2
	sound_ret

Music_Mushroom_Ch1_Sub4:
	note A_, 2
	note G#, 2
	note A_, 2
	note G_, 4
	note E_, 2
	note D_, 4
	note_type 8, 3, 4, 1, 12
	octave 4
	note D_, 2
	note_type 8, 3, 4, 1, 6
	sound_ret

Music_Mushroom_Ch1_Sub5:
	note D_, 2
	note C#, 2
	note D_, 2
	note E_, 2
	note D_, 2
	note C_, 2
	sound_ret

Music_Mushroom_Ch1_Sub6:
	note F#, 2
	note F_, 2
	note F#, 2
	note G_, 2
	note F#, 2
	note E_, 2
	sound_ret

Music_Mushroom_Ch1_Sub7:
	note D_, 2
	note D_, 2
	note D_, 2
	note D_, 6
	note E_, 2
	note E_, 2
	note E_, 2
	note E_, 6
	note F#, 2
	note F#, 2
	note F#, 2
	note F#, 2
	note E_, 2
	note D_, 2
	sound_ret

Music_Mushroom_Ch1_Sub8:
	octave 3
	note G_, 2
	note F#, 2
	note G_, 2
	note A_, 2
	note G_, 2
	note F#, 2
	sound_ret

Music_Mushroom_Ch3:
	vibrato 10, 1, 2
	hill_type 8, 0, 17
	rest 16
	rest 6
	octave 4
	note C_, 2
	note D_, 6
	note C_, 6
	octave 3
	note B_, 6
	note B_, 6

Music_Mushroom_Ch3_Menu:
	vibrato 10, 1, 2
	hill_type 8, 0, 33

Music_Mushroom_Ch3_Mainloop:
	sound_call Music_Mushroom_Ch3_Sub1
	octave 3
	note B_, 6
	octave 4
	note C_, 6
	note C#, 6
	sound_call Music_Mushroom_Ch3_Sub1
	note G_, 2
	note F#, 2
	note D_, 2
	note E_, 6
	note D_, 4
	note C_, 2
	sound_call Music_Mushroom_Ch3_Sub2
	note G_, 6
	sound_call Music_Mushroom_Ch3_Sub2
	note G_, 4
	octave 3
	note B_, 2
	sound_call Music_Mushroom_Ch3_Sub3
	note F#, 6
	sound_call Music_Mushroom_Ch3_Sub3
	note C_, 4
	note E_, 2
	octave 3
	note G_, 8
	rest 16
	note G_, 8
	rest 16
	sound_call Music_Mushroom_Ch3_Sub4
	octave 4
	note C#, 2
	note D_, 6
	octave 3
	note A_, 6
	octave 4
	note D_, 4
	octave 3
	note D_, 2
	note D_, 6
	octave 4
	note D_, 6
	octave 3
	note A_, 6
	octave 4
	note D_, 4
	octave 3
	note D_, 2
	note D_, 6
	sound_call Music_Mushroom_Ch3_Sub4
	note A_, 2
	sound_call Music_Mushroom_Ch3_Sub5
	note B_, 12
	octave 4
	note C_, 12
	note D_, 6
	rest 16
	note C_, 2
	note D_, 6
	note C_, 6
	octave 3
	note B_, 6
	note A_, 6
	note G_, 6
	octave 4
	note D_, 6
	note G_, 6
	octave 3
	note G_, 6
	rest 4
	octave 4
	note D_, 2
	octave 3
	note B_, 10
	octave 4
	note G_, 2
	note D_, 10
	note D_, 2
	octave 3
	note B_, 10
	octave 4
	note E_, 2
	note D_, 10
	note D_, 2
	octave 3
	note A_, 10
	octave 4
	note E_, 2
	note D_, 10
	note F#, 2
	note G_, 6
	note A_, 6
	note F#, 6
	note D_, 6
	octave 3
	note B_, 6
	octave 4
	note G_, 6
	note D_, 6
	note D_, 6
	octave 3
	note B_, 6
	octave 4
	note E_, 6
	note D_, 6
	note D_, 6
	octave 3
	note A_, 6
	octave 4
	note E_, 6
	note D_, 6
	note F#, 6
	note G_, 6
	note A_, 6
	note D_, 6
	note G_, 6
	note D_, 6
	note G_, 6
	note D_, 6
	note G_, 6
	note D_, 6
	note A_, 4
	note D_, 2
	note D_, 6
	octave 5
	note C_, 6
	octave 4
	note E_, 6
	octave 5
	note C_, 6
	octave 4
	note E_, 6
	note A_, 6
	note D_, 6
	note A_, 6
	note D_, 6

Music_Mushroom_Ch3_Loop1:
	octave 5
	note F#, 12
	note G_, 12
	note A_, 12
	note F#, 6
	note A_, 6
	sound_loop 2, Music_Mushroom_Ch3_Loop1

Music_Mushroom_Ch3_Loop2:
	rest 16
	sound_loop 6, Music_Mushroom_Ch3_Loop2
	octave 3
	note G_, 8
	rest 16
	note G_, 6
	rest 16
	note A_, 2
	note G_, 6
	note B_, 6
	octave 4
	note C_, 6
	octave 3
	note B_, 4
	note A_, 2
	sound_call Music_Mushroom_Ch3_Sub5
	note G_, 6
	note B_, 6
	octave 4
	note C_, 2
	note D_, 4
	note D_, 4
	note E_, 2
	sound_loop 0, Music_Mushroom_Ch3_Mainloop

Music_Mushroom_Ch3_Sub1:
	octave 4
	note D_, 6
	octave 3
	note B_, 6
	octave 4
	note E_, 6
	note C_, 4
	note E_, 2
	note D_, 6
	sound_ret

Music_Mushroom_Ch3_Sub2:
	octave 3
	note B_, 6
	octave 4
	note D#, 6
	note E_, 6
	sound_ret

Music_Mushroom_Ch3_Sub3:
	note A_, 6
	octave 4
	note C#, 6
	note D_, 6
	sound_ret

Music_Mushroom_Ch3_Sub4:
	note G_, 6
	note B_, 6
	octave 4
	note C_, 6
	octave 3
	note B_, 4
	note A_, 2
	note G_, 6
	note B_, 6
	octave 4
	note C_, 6
	octave 3
	note B_, 4
	sound_ret

Music_Mushroom_Ch3_Sub5:
	note G_, 6
	note B_, 6
	octave 4
	note C_, 6
	octave 3
	note B_, 4
	note A_, 2
	sound_loop 2, Music_Mushroom_Ch3_Sub5
	sound_ret

Music_Mushroom_Ch4:
	drum_speed 8
	frame_swap
	rest 6
	frame_swap
	rest 6
	frame_swap
	rest 6
	frame_swap
	rest 6
	frame_swap
	rest 6
	frame_swap
	rest 6
	frame_swap
	rest 6
	frame_swap
	rest 6

Music_Mushroom_Ch4_Menu:
	drum_speed 8
	frame_swap
	rest 5
	frame_swap
	rest 6
	frame_swap
	rest 6
	frame_swap
	rest 6

Music_Mushroom_Ch4_Mainloop:
	frame_swap
	rest 6
	frame_swap
	rest 6
	frame_swap
	rest 6
	frame_swap
	rest 6
	sound_loop 7, Music_Mushroom_Ch4_Mainloop

Music_Mushroom_Ch4_Loop1:
	frame_swap
	rest 12
	frame_swap
	rest 12
	sound_loop 2, Music_Mushroom_Ch4_Loop1

Music_Mushroom_Ch4_Loop2:
	frame_swap
	rest 6
	frame_swap
	rest 6
	frame_swap
	rest 6
	frame_swap
	rest 6
	sound_loop 2, Music_Mushroom_Ch4_Loop2

Music_Mushroom_Ch4_Loop3:
	frame_swap
	rest 6
	frame_swap
	rest 6
	frame_swap
	rest 4
	frame_swap
	rest 1
	frame_swap
	rest 1
	frame_swap
	rest 1
	frame_swap
	rest 5
	drum_speed 8
	sound_loop 2, Music_Mushroom_Ch4_Loop3

Music_Mushroom_Ch4_Loop4:
	frame_swap
	rest 6
	frame_swap
	rest 6
	frame_swap
	rest 6
	frame_swap
	rest 6
	sound_loop 4, Music_Mushroom_Ch4_Loop4
	frame_swap
	rest 12
	frame_swap
	rest 12
	frame_swap
	rest 12
	rest 10
	frame_swap
	rest 2

Music_Mushroom_Ch4_Loop5:
	frame_swap
	rest 6
	frame_swap
	rest 6
	frame_swap
	rest 6
	frame_swap
	rest 6
	sound_loop 2, Music_Mushroom_Ch4_Loop5

Music_Mushroom_Ch4_Loop6:
	frame_swap
	rest 12
	frame_swap
	rest 12
	sound_loop 4, Music_Mushroom_Ch4_Loop6

Music_Mushroom_Ch4_Loop7:
	frame_swap
	rest 6
	frame_swap
	rest 6
	frame_swap
	rest 6
	frame_swap
	rest 6
	sound_loop 8, Music_Mushroom_Ch4_Loop7

Music_Mushroom_Ch4_Loop8:
	frame_swap
	rest 12
	frame_swap
	rest 12
	frame_swap
	rest 12
	frame_swap
	rest 6
	frame_swap
	rest 6
	sound_loop 2, Music_Mushroom_Ch4_Loop8

Music_Mushroom_Ch4_Loop9:
	frame_swap
	rest 6
	frame_swap
	rest 6
	frame_swap
	rest 6
	frame_swap
	rest 6
	sound_loop 4, Music_Mushroom_Ch4_Loop9

Music_Mushroom_Ch4_Loop10:
	frame_swap
	rest 12
	frame_swap
	rest 12
	sound_loop 2, Music_Mushroom_Ch4_Loop10

Music_Mushroom_Ch4_Loop11:
	frame_swap
	rest 6
	frame_swap
	rest 6
	frame_swap
	rest 6
	frame_swap
	rest 6
	sound_loop 4, Music_Mushroom_Ch4_Loop11
	frame_swap
	rest 6
	frame_swap
	rest 6
	frame_swap
	rest 6
	frame_swap
	rest 6
	sound_loop 0, Music_Mushroom_Ch4_Mainloop
