Music_StageClear_Ch2:
	channel_volume 12
	vibrato 9, 1, 1
	pitch_inc_switch
	note_type 12, 1, 9, 1, 15
	octave 3
	note B_, 1
	octave 4
	note G#, 5
	note A_, 1
	note G#, 2
	note F#, 1
	note E_, 2
	note D#, 1
	octave 3
	note B_, 2
	note A_, 1
	note G#, 2
	note A_, 1
	note B_, 3
	octave 4
	note G#, 10
	sound_ret

Music_StageClear_Ch1:
	tempo 120
	vibrato 8, 1, 2
	channel_volume 13
	note_type 12, 1, 9, 1, 15
	octave 4
	note E_, 1
	note B_, 5
	octave 5
	note C#, 1
	octave 4
	note B_, 2
	note A_, 1
	note G#, 2
	note F#, 1
	note E_, 2
	note F#, 1
	note G#, 2
	note F#, 1
	note E_, 3
	octave 5
	note E_, 10
	sound_ret

Music_StageClear_Ch3:
	hill_type 12, 0, 4
	octave 4
	note E_, 1
	note B_, 5
	octave 5
	note C#, 1
	octave 4
	note B_, 2
	note A_, 1
	note G#, 2
	note F#, 1
	note E_, 2
	note F#, 1
	note G#, 2
	note F#, 1
	note E_, 3
	octave 5
	note E_, 10
	sound_ret
