Music_Starman_Ch2:
	channel_volume 12
	vibrato 9, 1, 3
	note_type 12, 0, 6, 1, 4
	octave 3
	note A_, 1
	note B_, 1
	note A_, 1
	note B_, 1
	note A_, 1
	note B_, 1
	note A_, 1
	note B_, 1
	note A_, 1
	rest 1
	note E_, 1
	rest 1
	note F#, 1
	rest 1
	note G#, 1
	rest 1
	note E_, 3
	note F#, 1
	note G#, 2
	note E_, 2
	note A_, 1
	rest 3
	note A_, 1
	rest 3

Music_Starman_Ch2_Menu:
	channel_volume 12
	pitch_inc_switch
	vibrato 9, 1, 3
	note_type 12, 0, 6, 1, 4

Music_Starman_Ch2_Mainloop:
	octave 3
	note C#, 2
	note C#, 4
	note E_, 2
	note A_, 4
	note G#, 3
	note F#, 1
	note E_, 2
	octave 2
	note B_, 4
	octave 4
	note D_, 1
	rest 1
	octave 3
	note B_, 2
	octave 4
	note A_, 1
	rest 1
	note G#, 4
	octave 3
	note E_, 2
	note E_, 4
	octave 2
	note B_, 2
	octave 3
	note D_, 4
	octave 2
	note B_, 3
	octave 3
	note D_, 1
	note C#, 4
	note D_, 4
	note E_, 2
	note D_, 2
	note C#, 2
	octave 2
	note B_, 2
	octave 3
	note C#, 2
	octave 2
	note A_, 4
	octave 3
	note E_, 2
	note A_, 4
	note G#, 3
	note F#, 1
	note E_, 2
	octave 2
	note B_, 4
	octave 4
	note D_, 1
	rest 1
	octave 3
	note B_, 2
	octave 4
	note A_, 1
	rest 1
	note G#, 4
	octave 3
	note E_, 2
	note E_, 4
	octave 2
	note B_, 2
	octave 3
	note D_, 4
	octave 2
	note B_, 3
	octave 3
	note D_, 1
	note E_, 4
	note D_, 4
	note C#, 4
	note C#, 6
	note C#, 4
	note C#, 4
	note C#, 4
	note C#, 4
	note D_, 4
	note D_, 4
	note D_, 1
	note D_, 3
	note D_, 4
	note D_, 4
	note D_, 2
	note E_, 2
	note D_, 2
	note C#, 2
	octave 2
	note B_, 4
	octave 3
	note C#, 1
	note C#, 3
	note D_, 2
	note E_, 2
	note F#, 2
	note F#, 2
	note E_, 2
	octave 2
	note A_, 4
	octave 3
	note F#, 6
	note F#, 4
	note F#, 2
	octave 2
	note G#, 4
	octave 3
	note G#, 6
	note G#, 4
	note G#, 4
	note A_, 4
	note A_, 3
	note G#, 1
	note A_, 2
	note B_, 2
	note A_, 2
	note B_, 4
	rest 14
	octave 2
	note A_, 4
	note A_, 4
	note A_, 4
	note A_, 2
	note B_, 2
	note B_, 4
	note B_, 4
	note B_, 4
	note B_, 2
	octave 3
	note C#, 2
	note C#, 4
	note C#, 4
	note C#, 4
	note C#, 2
	octave 2
	note B_, 1
	rest 15
	note A_, 2
	note A_, 4
	note A_, 4
	note A_, 4
	note A_, 2
	note B_, 2
	note B_, 4
	note B_, 4
	note B_, 4
	note B_, 2
	octave 3
	note C#, 2
	note C#, 4
	note C#, 4
	note C#, 4
	note C#, 2
	note E_, 2
	note E_, 4
	note G#, 6
	note_type 6, 0, 6, 1, 4
	note E_, 1
	note F#, 1
	note G_, 1
	note G#, 1
	note A_, 1
	note A#, 1
	note B_, 1
	octave 4
	note C_, 1
	note C#, 16
	octave 3
	note B_, 16
	note A_, 16
	note B_, 16
	octave 4
	note C#, 8
	octave 3
	note B_, 8
	octave 4
	note C#, 8
	octave 3
	note B_, 8
	note A_, 8
	note B_, 8
	octave 4
	note C#, 8
	octave 3
	note B_, 8
	octave 4
	note C#, 8
	octave 3
	note B_, 8
	octave 4
	note C#, 8
	octave 3
	note B_, 8
	note A_, 8
	note B_, 8
	octave 4
	note C#, 8
	octave 3
	note B_, 8
	note A_, 4
	note E_, 8
	note A_, 4
	octave 4
	note C#, 8
	octave 3
	note B_, 8
	note A_, 4
	note B_, 8
	note A_, 4
	note G#, 8
	note A_, 8
	note D_, 16
	octave 2
	note A_, 16
	octave 3
	note G#, 16
	octave 2
	note B_, 16
	note_type 12, 0, 6, 1, 4
	rest 16
	rest 16
	rest 16
	rest 16
	rest 2
	octave 3
	note E_, 6
	note C#, 4
	octave 2
	note B_, 6
	octave 3
	note D_, 6
	octave 2
	note B_, 4
	octave 3
	note D_, 6
	note C#, 6
	octave 2
	note A_, 4
	note B_, 6
	note B_, 6
	note B_, 4
	octave 3
	note C#, 4
	rest 16
	rest 16
	rest 16
	rest 16
	rest 2
	note E_, 6
	note E_, 4
	note E_, 6
	note F#, 6
	note F#, 4
	note F#, 6
	note A_, 6
	note A_, 4
	note A_, 4
	note G#, 6
	note G#, 2
	note G#, 4
	note G#, 4
	note E_, 2
	note G#, 2
	note F#, 2
	note E_, 2
	note G#, 2
	note F#, 2
	note G#, 2
	note A_, 2
	note A_, 2
	note G#, 2
	note F#, 2
	note G#, 2
	note A_, 2
	note G#, 2
	note F#, 2
	note G#, 2
	note B_, 2
	note A_, 2
	note G#, 2
	note A_, 2
	note B_, 2
	note A_, 2
	note B_, 2
	octave 4
	note C#, 2
	note E_, 2
	note D_, 2
	note C#, 2
	octave 3
	note B_, 4
	octave 4
	note C#, 2
	note C#, 4
	rest 8
	octave 2
	note A_, 4
	note G#, 4
	note F#, 4
	note E_, 4
	note D_, 4
	note C#, 4
	note A_, 4
	note G#, 4
	note F#, 4
	note E_, 4
	note D_, 4
	note C#, 4
	octave 1
	note B_, 4
	note G#, 4
	sound_loop 0, Music_Starman_Ch2_Mainloop

Music_Starman_Ch1:
	tempo 128
	channel_volume 13
	vibrato 8, 1, 2
	note_type 12, 1, 5, 2, 6
	octave 4
	note E_, 6
	note F#, 1
	rest 1
	note E_, 1
	rest 1
	note D_, 1
	rest 1
	note C#, 1
	rest 1
	octave 3
	note B_, 1
	rest 1
	note A_, 2
	note B_, 2
	octave 4
	note C#, 2
	octave 3
	note B_, 2
	octave 4
	note E_, 1
	rest 3
	note E_, 1
	rest 3

Music_Starman_Ch1_Menu:
	tempo 128
	channel_volume 13
	vibrato 8, 1, 2
	note_type 12, 1, 5, 2, 6

Music_Starman_Ch1_Mainloop:
	octave 3
	note A_, 2
	note E_, 4
	note A_, 2
	octave 4
	note C#, 4
	octave 3
	note B_, 3
	note A_, 1
	note G#, 2
	note E_, 4
	octave 4
	note F#, 2
	note E_, 2
	octave 5
	note C#, 2
	octave 4
	note B_, 4
	octave 3
	note G#, 2
	note B_, 4
	note E_, 2
	note F#, 4
	note G#, 3
	note B_, 1
	note A_, 6
	note B_, 2
	octave 4
	note C#, 8
	octave 3
	note A_, 2
	note E_, 4
	note A_, 2
	octave 4
	note C#, 4
	octave 3
	note B_, 3
	note A_, 1
	note G#, 2
	note E_, 4
	octave 4
	note F#, 2
	note E_, 2
	octave 5
	note C#, 2
	octave 4
	note B_, 4
	octave 3
	note G#, 2
	note B_, 4
	note E_, 2
	note F#, 4
	note G#, 3
	note B_, 1
	note A_, 6
	note E_, 2
	note A_, 2
	octave 2
	note E_, 2
	note F#, 2
	note G#, 2
	note A_, 6
	note G#, 2
	note F#, 4
	note A_, 4
	note G#, 6
	note A_, 2
	note B_, 8
	note G#, 4
	note B_, 4
	note G#, 2
	note E_, 2
	note F#, 2
	note G#, 2
	note A_, 6
	note B_, 2
	octave 3
	note C#, 8
	note D_, 4
	octave 2
	note F#, 3
	note A_, 1
	octave 3
	note D_, 8
	note C#, 4
	octave 2
	note E_, 3
	note A_, 1
	octave 3
	note C#, 8
	octave 2
	note B_, 3
	note A#, 1
	note B_, 2
	octave 3
	note C#, 2
	note D_, 2
	note C#, 2
	note D_, 2
	note F#, 2
	note E_, 4
	note E_, 1
	note_type 6, 1, 5, 2, 6
	note D_, 1
	note C#, 1
	octave 2
	note B_, 1
	note A_, 1
	note G#, 1
	note F#, 1
	note E_, 8
	octave 3
	note E_, 6
	note D_, 2
	note C#, 12
	note C#, 8
	note C#, 8
	note C#, 4
	note D_, 12
	note D_, 8
	note D_, 4
	note E_, 4
	note D_, 4
	note E_, 4
	note E_, 8
	note E_, 8
	note E_, 8
	note E_, 4
	note G#, 2
	note_type 12, 1, 5, 2, 6
	rest 1
	rest 16
	note C#, 4
	note C#, 4
	note C#, 2
	note D_, 2
	note C#, 4
	note D_, 4
	note D_, 4
	note D_, 2
	note E_, 2
	note D_, 4
	note E_, 4
	note E_, 4
	note E_, 2
	note F#, 2
	note E_, 2
	note G#, 2
	note G#, 2
	note B_, 2
	note B_, 6
	rest 4
	octave 4
	note A_, 4
	note A_, 2
	note E_, 2
	note G#, 4
	note G#, 2
	note E_, 2
	note F#, 4
	note F#, 2
	note E_, 2
	note G#, 4
	note G#, 2
	note E_, 2
	note A_, 4
	note A_, 2
	note E_, 2
	note G#, 4
	note G#, 2
	note E_, 2
	note F#, 4
	note F#, 2
	note E_, 2
	note G#, 4
	note G#, 2
	note E_, 2
	note A_, 4
	note A_, 2
	note E_, 2
	note G#, 4
	note G#, 2
	note E_, 2
	note F#, 4
	note F#, 2
	note E_, 2
	note G#, 4
	note G#, 2
	note E_, 2
	note A_, 4
	note A_, 2
	note E_, 2
	note G#, 4
	note G#, 2
	note E_, 2
	note F#, 4
	note F#, 2
	note E_, 2
	note G#, 4
	note G#, 2
	note E_, 2
	octave 3
	note F#, 16
	note E_, 16
	note A_, 6
	note G#, 2
	note F#, 2
	note E_, 2
	note F#, 2
	note D_, 2
	note G#, 6
	note F#, 2
	note E_, 2
	note F#, 2
	note G#, 2
	note B_, 2
	note A_, 2
	note G#, 2
	note F#, 2
	note E_, 2
	note D_, 2
	note C#, 2
	note D_, 2
	note F#, 2
	note E_, 4
	note F#, 4
	note G#, 2
	note F#, 2
	note G#, 2
	note E_, 2
	note A_, 6
	note G#, 2
	note F#, 2
	note E_, 2
	note F#, 2
	note D_, 2
	note G#, 6
	note F#, 2
	note E_, 2
	note F#, 2
	note G#, 2
	note B_, 2
	note A_, 2
	note G#, 2
	note F#, 2
	note E_, 2
	note D_, 2
	note C#, 2
	note D_, 2
	note F#, 2
	note E_, 4
	note F#, 4
	note G#, 2
	note F#, 2
	note G#, 2
	note E_, 2
	note A_, 6
	note G#, 2
	note F#, 2
	note E_, 2
	note F#, 2
	note D_, 2
	note G#, 6
	note F#, 2
	note E_, 2
	note F#, 2
	note G#, 2
	note B_, 2
	note A_, 2
	note G#, 2
	note F#, 2
	note E_, 2
	note D_, 2
	note C#, 2
	note D_, 2
	note F#, 2
	octave 4
	note C#, 4
	octave 3
	note B_, 4
	octave 4
	note C#, 2
	octave 3
	note B_, 2
	note A_, 2
	note G#, 4
	octave 4
	note C#, 6
	note C#, 4
	note C#, 6
	note D_, 6
	note D_, 4
	note D_, 6
	note E_, 6
	note E_, 4
	note E_, 4
	octave 3
	note B_, 6
	note B_, 2
	octave 4
	note D_, 4
	note F#, 4
	note C#, 6
	note C#, 6
	note C#, 4
	note D_, 6
	note D_, 6
	note D_, 4
	note E_, 6
	note E_, 6
	note E_, 4
	note G#, 2
	note F#, 2
	note G#, 2
	note B_, 4
	note E_, 2
	note A_, 2
	octave 3
	note F#, 1
	note G#, 1
	note A_, 4
	note G#, 4
	note F#, 4
	note E_, 4
	note D_, 4
	note C#, 4
	octave 2
	note B_, 4
	note A_, 4
	octave 3
	note A_, 4
	note G#, 4
	note F#, 4
	note E_, 4
	note D_, 4
	note C#, 4
	octave 2
	note B_, 4
	octave 3
	note E_, 4
	sound_loop 0, Music_Starman_Ch1_Mainloop

Music_Starman_Ch3:
	vibrato 16, 2, 1
	hill_type 12, 0, 17
	rest 16
	rest 10
	octave 3
	note E_, 2
	note F#, 2
	note G#, 2

Music_Starman_Ch3_Menu:
	vibrato 16, 2, 1
	hill_type 12, 0, 17

Music_Starman_Ch3_Mainloop:
	octave 3
	note A_, 2
	note A_, 2
	note E_, 2
	octave 4
	note C#, 2
	octave 3
	note A_, 2
	octave 4
	note E_, 2
	octave 3
	note E_, 2
	note B_, 2
	note G#, 2
	note E_, 6
	pitch_slide 1, 2, E_
	note E_, 2
	rest 2
	pitch_slide 1, 2, E_
	note E_, 2
	rest 2
	note G#, 2
	note B_, 2
	note E_, 2
	note G#, 2
	note F#, 2
	note G#, 2
	note G#, 2
	note E_, 2
	note A_, 2
	note A_, 2
	note E_, 2
	note A_, 1
	note G#, 1
	note A_, 2
	note B_, 2
	note E_, 2
	note G#, 2
	note A_, 2
	note E_, 2
	note E_, 2
	octave 4
	note C#, 2
	octave 3
	note A_, 2
	octave 4
	note E_, 2
	octave 3
	note A_, 1
	note B♭, 1
	note B_, 1
	note A_, 1
	note G#, 2
	note G#, 6
	pitch_slide 1, 2, E_
	note E_, 2
	rest 2
	pitch_slide 1, 2, E_
	note E_, 2
	rest 2
	note G#, 2
	note B_, 2
	note E_, 2
	note G#, 2
	note F#, 2
	note G#, 4
	note G#, 2
	note A_, 4
	note E_, 4
	note A_, 4
	note A_, 4
	note C#, 2
	note E_, 2
	note C#, 2
	note E_, 2
	note C#, 2
	note E_, 2
	note C#, 2
	note E_, 2
	note D_, 2
	note F#, 2
	note D_, 1
	note C#, 1
	octave 2
	note B_, 1
	octave 3
	note C#, 1
	note D_, 2
	note F#, 2
	note D_, 2
	note F#, 2
	note D_, 2
	note F#, 2
	note D_, 2
	note F#, 2
	note D_, 2
	octave 2
	note B_, 2
	note B_, 2
	octave 3
	note D_, 2
	note C#, 2
	note E_, 2
	note C#, 2
	note E_, 2
	note C#, 1
	note D_, 1
	note E_, 1
	note D_, 1
	note C#, 2
	note E_, 8
	note D_, 1
	note F#, 1
	note D_, 2
	note A_, 2
	note D_, 2
	note A_, 8
	note C#, 1
	note E_, 1
	note G#, 2
	octave 4
	note E_, 2
	octave 3
	note G#, 2
	octave 4
	note E_, 2
	octave 3
	note D_, 2
	note F#, 2
	note D_, 2
	note F#, 2
	note D_, 2
	note F#, 2
	note D_, 2
	note F#, 2
	note G#, 16
	octave 4
	note A_, 2
	note E_, 4
	note A_, 2
	octave 5
	note C#, 2
	note D_, 4
	note C#, 2
	octave 4
	note B_, 2
	note F#, 4
	note B_, 2
	octave 5
	note D_, 2
	note E_, 4
	note D_, 2
	note C#, 2
	note D_, 4
	note E_, 2
	note F#, 2
	note E_, 4
	note F#, 2
	note D_, 2
	note C#, 2
	octave 4
	note B_, 2
	note A_, 2
	note G#, 2
	note A_, 2
	note B_, 2
	note G#, 2
	note A_, 2
	note E_, 4
	note A_, 2
	octave 5
	note C#, 2
	note D_, 4
	note C#, 2
	octave 4
	note B_, 2
	note F#, 4
	note B_, 2
	octave 5
	note D_, 2
	note E_, 4
	note D_, 2
	note C#, 2
	note D_, 4
	note E_, 2
	note F#, 2
	note E_, 4
	note F#, 2
	note G#, 2
	note F#, 2
	note G#, 2
	note E_, 10
	hill_type 12, 0, 97
	octave 4
	note C#, 8
	note E_, 8
	note D_, 8
	note G#, 8
	note C#, 8
	note E_, 8
	note D_, 8
	note G#, 8
	hill_type 12, 0, 65
	note C#, 4
	note E_, 4
	octave 3
	note A_, 4
	octave 4
	note E_, 4
	note D_, 2
	note C#, 2
	octave 3
	note B_, 2
	note A_, 2
	note G#, 2
	note A_, 2
	note B_, 2
	note G#, 2
	octave 4
	note C#, 2
	octave 3
	note B_, 2
	note A_, 2
	octave 4
	note C#, 2
	note E_, 2
	note D_, 2
	note C#, 2
	octave 3
	note B_, 2
	note A_, 2
	note B_, 2
	octave 4
	note C#, 2
	note D_, 2
	note E_, 2
	note D_, 2
	note C#, 2
	octave 3
	note B_, 6
	octave 2
	note A_, 1
	note B_, 1
	octave 3
	note C#, 1
	note D_, 1
	note E_, 1
	note F#, 1
	note Fx, 1 ; double sharp
	note G#, 1
	note A_, 8
	octave 2
	note B_, 1
	octave 3
	note C#, 1
	note D_, 1
	note E_, 1
	note F#, 1
	note G#, 1
	note A_, 1
	note A#, 1
	note B_, 6
	octave 4
	note C#, 6
	note C#, 4
	octave 3
	note A_, 6
	note B_, 6
	note B_, 4
	note G#, 6
	note A_, 6
	note A_, 4
	note F#, 6
	note G#, 6
	note G#, 4
	note B_, 6
	octave 4
	note C#, 6
	octave 3
	note A_, 4
	note A_, 6
	note B_, 6
	note G#, 4
	note B_, 6
	note A_, 6
	note F#, 4
	note A_, 6
	note G#, 6
	note G#, 4
	note G#, 4
	note A_, 2
	octave 4
	note C#, 4
	note E_, 2
	note C#, 4
	octave 3
	note A_, 4
	note G#, 2
	note B_, 4
	octave 4
	note D_, 2
	octave 3
	note B_, 4
	note G#, 4
	note F#, 2
	note A_, 4
	octave 4
	note C#, 2
	octave 3
	note A_, 4
	note F#, 4
	note G#, 2
	octave 4
	note D_, 4
	note F#, 2
	note E_, 4
	note D_, 4
	hill_type 12, 0, 49
	octave 3
	note A_, 2
	note E_, 4
	note A_, 2
	octave 4
	note C#, 4
	octave 3
	note B_, 3
	note A_, 1
	note B_, 2
	note F#, 4
	note B_, 2
	octave 4
	note D_, 4
	note C#, 3
	octave 3
	note B_, 1
	octave 4
	note C#, 2
	note D_, 4
	note E_, 2
	note F#, 2
	note E_, 4
	note F#, 2
	octave 3
	note F#, 2
	note G#, 4
	note A_, 2
	note B_, 4
	note G#, 4
	note A_, 2
	note E_, 4
	note A_, 2
	octave 4
	note C#, 4
	octave 3
	note B_, 3
	note A_, 1
	note B_, 2
	note F#, 4
	note B_, 2
	octave 4
	note D_, 4
	note C#, 3
	octave 3
	note B_, 1
	octave 4
	note C#, 2
	note D_, 4
	note E_, 2
	note F#, 2
	note E_, 4
	note F#, 2
	note G#, 2
	note F#, 2
	note G#, 2
	note E_, 4
	hill_type 12, 0, 17
	note A_, 2
	note A_, 16
	rest 4
	hill_type 12, 0, 65
	octave 2
	note A_, 4
	note G#, 4
	note F#, 4
	note E_, 4
	octave 4
	note C#, 4
	octave 3
	note B_, 4
	note A_, 4
	note G#, 4
	note F#, 4
	note E_, 6
	hill_type 12, 0, 17
	note E_, 2
	note F#, 2
	note G#, 2
	sound_loop 0, Music_Starman_Ch3_Mainloop

Music_Starman_Ch4:
	drum_speed 12
	frame_swap
	rest 2
	frame_swap
	rest 2
	frame_swap
	rest 2
	frame_swap
	rest 2
	frame_swap
	rest 2
	frame_swap
	rest 2
	frame_swap
	rest 2
	frame_swap
	rest 2
	frame_swap
	rest 2
	frame_swap
	rest 2
	frame_swap
	rest 2
	frame_swap
	rest 2
	frame_swap
	rest 2
	frame_swap
	rest 2
	frame_swap
	rest 2
	frame_swap
	rest 2

Music_Starman_Ch4_Menu:
	drum_speed 12
	frame_swap
	rest 1
	frame_swap
	rest 2
	frame_swap
	rest 2
	frame_swap
	rest 2
	frame_swap
	rest 2
	frame_swap
	rest 2
	frame_swap
	rest 2
	frame_swap
	rest 2

Music_Starman_Ch4_Mainloop:
	frame_swap
	rest 2
	frame_swap
	rest 2
	rest 2
	drum_speed 6
	frame_swap
	rest 1
	frame_swap
	rest 3
	frame_swap
	rest 1
	frame_swap
	rest 3
	frame_swap
	rest 1
	frame_swap
	rest 3
	frame_swap
	rest 1
	frame_swap
	rest 3
	drum_speed 12
	rest 2

Music_Starman_Ch4_Loop1:
	frame_swap
	rest 2
	frame_swap
	rest 2
	frame_swap
	rest 2
	frame_swap
	rest 2
	frame_swap
	rest 2
	frame_swap
	rest 2
	frame_swap
	rest 2
	frame_swap
	rest 2
	sound_loop 2, Music_Starman_Ch4_Loop1
	frame_swap
	rest 2
	frame_swap
	rest 2
	frame_swap
	rest 2
	frame_swap
	rest 2
	frame_swap
	rest 2
	frame_swap
	rest 2
	frame_swap
	rest 2
	frame_swap
	rest 2
	frame_swap
	rest 2
	frame_swap
	rest 2
	rest 2
	drum_speed 6
	frame_swap
	rest 1
	frame_swap
	rest 3
	frame_swap
	rest 1
	frame_swap
	rest 3
	frame_swap
	rest 1
	frame_swap
	rest 3
	frame_swap
	rest 1
	frame_swap
	rest 3
	drum_speed 12
	rest 2
	frame_swap
	rest 2
	frame_swap
	rest 2
	frame_swap
	rest 2
	frame_swap
	rest 2
	frame_swap
	rest 2
	frame_swap
	rest 2
	frame_swap
	rest 2
	frame_swap
	rest 2
	frame_swap
	rest 4
	frame_swap
	rest 4
	frame_swap
	rest 4
	frame_swap
	rest 2
	frame_swap
	rest 2

Music_Starman_Ch4_Loop2:
	frame_swap
	rest 2
	frame_swap
	rest 2
	frame_swap
	rest 2
	frame_swap
	rest 2
	frame_swap
	rest 2
	frame_swap
	rest 2
	frame_swap
	rest 2
	frame_swap
	rest 2
	sound_loop 4, Music_Starman_Ch4_Loop2

Music_Starman_Ch4_Loop3:
	frame_swap
	rest 8
	frame_swap
	rest 2
	frame_swap
	rest 2
	frame_swap
	rest 2
	frame_swap
	rest 2
	sound_loop 2, Music_Starman_Ch4_Loop3
	frame_swap
	rest 2
	frame_swap
	rest 2
	frame_swap
	rest 2
	frame_swap
	rest 2
	frame_swap
	rest 2
	frame_swap
	rest 2
	frame_swap
	rest 2
	frame_swap
	rest 2
	frame_swap
	rest 16

Music_Starman_Ch4_Loop4:
	frame_swap
	rest 4
	frame_swap
	rest 4
	frame_swap
	rest 4
	frame_swap
	rest 4
	sound_loop 3, Music_Starman_Ch4_Loop4
	frame_swap
	rest 16

Music_Starman_Ch4_Loop5:
	frame_swap
	rest 4
	frame_swap
	rest 4
	frame_swap
	rest 4
	frame_swap
	rest 4
	sound_loop 3, Music_Starman_Ch4_Loop5
	frame_swap
	rest 2
	frame_swap
	rest 2
	frame_swap
	rest 2
	frame_swap
	rest 2
	rest 8

Music_Starman_Ch4_Loop6:
	frame_swap
	rest 4
	frame_swap
	rest 4
	frame_swap
	rest 4
	frame_swap
	rest 4
	sound_loop 2, Music_Starman_Ch4_Loop6

Music_Starman_Ch4_Loop7:
	frame_swap
	rest 2
	frame_swap
	rest 2
	frame_swap
	rest 2
	frame_swap
	rest 2
	frame_swap
	rest 2
	frame_swap
	rest 2
	frame_swap
	rest 2
	frame_swap
	rest 2
	sound_loop 6, Music_Starman_Ch4_Loop7

Music_Starman_Ch4_Loop8:
	frame_swap
	rest 4
	frame_swap
	rest 4
	frame_swap
	rest 4
	frame_swap
	rest 4
	sound_loop 2, Music_Starman_Ch4_Loop8

Music_Starman_Ch4_Loop9:
	frame_swap
	rest 4
	frame_swap
	rest 4
	frame_swap
	rest 4
	frame_swap
	rest 4
	sound_loop 2, Music_Starman_Ch4_Loop9

Music_Starman_Ch4_Loop10:
	frame_swap
	rest 2
	frame_swap
	rest 2
	frame_swap
	rest 2
	frame_swap
	rest 2
	frame_swap
	rest 2
	frame_swap
	rest 2
	frame_swap
	rest 2
	frame_swap
	rest 2
	sound_loop 2, Music_Starman_Ch4_Loop10

Music_Starman_Ch4_Loop11:
	frame_swap
	rest 4
	frame_swap
	rest 4
	frame_swap
	rest 4
	frame_swap
	rest 4
	sound_loop 2, Music_Starman_Ch4_Loop11

Music_Starman_Ch4_Loop12:
	frame_swap
	rest 2
	frame_swap
	rest 2
	frame_swap
	rest 2
	frame_swap
	rest 2
	frame_swap
	rest 2
	frame_swap
	rest 2
	frame_swap
	rest 2
	frame_swap
	rest 2
	sound_loop 2, Music_Starman_Ch4_Loop12

Music_Starman_Ch4_Loop13:
	frame_swap
	rest 4
	frame_swap
	rest 4
	frame_swap
	rest 4
	frame_swap
	rest 4
	sound_loop 2, Music_Starman_Ch4_Loop13

Music_Starman_Ch4_Loop14:
	frame_swap
	rest 2
	frame_swap
	rest 2
	frame_swap
	rest 2
	frame_swap
	rest 2
	frame_swap
	rest 2
	frame_swap
	rest 2
	frame_swap
	rest 2
	frame_swap
	rest 2
	sound_loop 2, Music_Starman_Ch4_Loop14

Music_Starman_Ch4_Loop15:
	frame_swap
	rest 2
	frame_swap
	rest 2
	frame_swap
	rest 2
	frame_swap
	rest 2
	frame_swap
	rest 2
	frame_swap
	rest 2
	frame_swap
	rest 2
	frame_swap
	rest 2
	sound_loop 7, Music_Starman_Ch4_Loop15
	frame_swap
	rest 2
	frame_swap
	rest 2
	frame_swap
	rest 2
	frame_swap
	rest 4
	frame_swap
	rest 2
	frame_swap
	rest 4

Music_Starman_Ch4_Loop16:
	frame_swap
	rest 4
	frame_swap
	rest 4
	frame_swap
	rest 4
	frame_swap
	rest 4
	sound_loop 3, Music_Starman_Ch4_Loop16
	frame_swap
	rest 4
	frame_swap
	rest 4
	frame_swap
	rest 4
	rest 1
	frame_swap
	rest 1
	frame_swap
	rest 1
	frame_swap
	rest 1
	frame_swap
	rest 2
	frame_swap
	rest 2
	frame_swap
	rest 2
	frame_swap
	rest 2
	frame_swap
	rest 2
	frame_swap
	rest 2
	frame_swap
	rest 2
	frame_swap
	rest 2
	sound_loop 0, Music_Starman_Ch4_Mainloop
