Music_Title_Ch2:
	channel_volume 12
	pitch_inc_switch
	note_type 12, 1, 11, 1, 4
	octave 2
	note A#, 3
	octave 3
	note D_, 3
	note F_, 2
	octave 2
	note A#, 3
	octave 3
	note D_, 3
	note F_, 2
	note D#, 3
	note G_, 3
	note A#, 2
	note D#, 3
	note G_, 3
	note A#, 2
	note A_, 2
	note F_, 4
	note A_, 2
	octave 4
	note C_, 4
	octave 3
	note A_, 4
	note A#, 1
	note A_, 1
	note A#, 1
	note F_, 1
	note G_, 1
	note F_, 1
	note D_, 1
	note F_, 1
	octave 2
	note A#, 4
	octave 3
	note A#, 4
	octave 2
	note A#, 3
	octave 3
	note D_, 3
	note F_, 2
	octave 2
	note A#, 3
	octave 3
	note D_, 3
	note F_, 2
	note D#, 3
	note G_, 3
	note A#, 2
	note D#, 3
	note D_, 1
	note D#, 1
	note D_, 1
	note D_, 1
	note D#, 1
	note C_, 3
	note D_, 3
	note D#, 2
	note C_, 3
	note D_, 3
	note D#, 2
	note A#, 2
	note F_, 2
	octave 4
	note C_, 2
	octave 3
	note D#, 2
	octave 4
	note C#, 2
	octave 3
	note D_, 2
	octave 4
	note D_, 2
	octave 3
	note C_, 2
	octave 2
	note A#, 3
	octave 3
	note D_, 3
	note F_, 2
	octave 2
	note A#, 3
	octave 3
	note D_, 3
	note F_, 2
	note D#, 3
	note G_, 3
	note A#, 2
	note D#, 3
	note G_, 3
	note A#, 2
	note F_, 3
	note F_, 3
	note A#, 2
	note F_, 3
	note A_, 3
	octave 4
	note C_, 2
	note D_, 3
	octave 3
	note A#, 3
	note F_, 2
	octave 4
	note F_, 2
	note D#, 2
	note D_, 2
	note C_, 2
	octave 3
	note G_, 2
	octave 2
	note A#, 2
	octave 3
	note D#, 2
	note F_, 2
	note G_, 2
	note D#, 2
	note A#, 2
	note G_, 2
	note F_, 2
	octave 2
	note A#, 2
	octave 3
	note D_, 2
	note D#, 2
	note F_, 2
	note D_, 2
	note G_, 2
	note F_, 2
	note F_, 2
	octave 2
	note A_, 2
	octave 3
	note C_, 2
	note D_, 2
	note D#, 2
	note C_, 2
	note G_, 2
	note D#, 2
	note F_, 2
	note D#, 2
	note D_, 2
	note C_, 2
	note D_, 2
	note F_, 2
	octave 2
	note A#, 2
	octave 3
	note F_, 2
	note G_, 2
	octave 2
	note A#, 2
	octave 3
	note D#, 2
	note F_, 2
	note G_, 2
	note D#, 2
	note A#, 2
	note G_, 2
	note F_, 2
	octave 2
	note A#, 2
	octave 3
	note D_, 2
	note D#, 2
	note F_, 2
	note G_, 2
	note A_, 2
	note B_, 2
	octave 4
	note C_, 2
	octave 3
	note F_, 2
	note G_, 2
	note A_, 2
	note F_, 2
	note G_, 2
	note A_, 2
	octave 4
	note C_, 2
	octave 3
	note A#, 2
	note A_, 2
	note G_, 2
	note A_, 2
	note A#, 1
	rest 7
	sound_ret

Music_Title_Ch1:
	tempo 164
	channel_volume 13
	vibrato 24, 1, 2
	note_type 12, 1, 10, 1, 8
	octave 4
	note D_, 2
	note D_, 2
	note C_, 2
	note C_, 2
	octave 3
	note A#, 2
	octave 4
	note C_, 2
	note D_, 2
	octave 3
	note A#, 1
	note_type 6, 1, 10, 1, 8
	octave 4
	note D_, 1
	note F_, 1
	note_type 12, 1, 10, 1, 8
	note G_, 2
	note G_, 2
	note F_, 2
	note F_, 2
	note G_, 2
	note F_, 2
	note D#, 2
	note D_, 2
	note C_, 2
	note C_, 2
	note D_, 2
	note D_, 2
	note D#, 2
	note D#, 2
	note G_, 2
	note D#, 2
	note F_, 4
	note D#, 4
	note D_, 4
	note A#, 4
	note_type 12, 1, 10, 1, 6
	note F_, 1
	note G_, 2
	note F_, 3
	note D_, 2
	note A#, 2
	note A_, 2
	note A#, 2
	note A_, 2
	note G_, 2
	note D#, 14
	note C_, 1
	note D#, 2
	note C_, 3
	octave 3
	note A_, 2
	octave 4
	note G_, 2
	note F_, 2
	note G_, 2
	note F_, 2
	note D_, 4
	note D#, 4
	note E_, 4
	note F_, 4
	note F_, 1
	note G_, 2
	note F_, 3
	note D_, 2
	note A#, 2
	note A_, 2
	note A#, 2
	note A_, 2
	note G_, 3
	note A#, 11
	note_type 6, 1, 10, 2, 6
	note F_, 1
	note G_, 1
	note A_, 1
	note A#, 1
	note_type 12, 1, 10, 2, 6
	octave 5
	note C_, 2
	note C_, 2
	octave 4
	note A#, 2
	note A#, 2
	note A_, 2
	octave 5
	note D_, 2
	note C_, 2
	octave 4
	note A_, 2
	note A#, 16
	note G_, 4
	note D#, 6
	note G_, 2
	note F_, 2
	note G_, 2
	note F_, 4
	note A#, 6
	note A#, 2
	note A_, 2
	note A#, 2
	note A_, 4
	note F_, 4
	octave 5
	note C_, 4
	octave 4
	note A_, 4
	note A#, 4
	octave 5
	note C_, 4
	note D_, 2
	note C_, 2
	octave 4
	note A#, 2
	note A_, 2
	note G_, 4
	note D#, 6
	note A#, 2
	note A_, 2
	note A#, 2
	octave 5
	note D_, 4
	note C_, 4
	octave 4
	note B_, 4
	note F#, 2
	note G_, 2
	octave 5
	note C_, 4
	octave 4
	note A#, 4
	note A_, 2
	octave 5
	note D_, 2
	note C_, 2
	octave 4
	note A_, 2
	note A#, 4
	note A#, 4
	note A#, 1
	rest 7
	rest 4
	sound_ret

Music_Title_Ch3:
	hill_type 6, 0, 17
	sound_call Music_Title_Ch3_Sub1
	sound_call Music_Title_Ch3_Sub1
	sound_call Music_Title_Ch3_Sub1
	sound_call Music_Title_Ch3_Sub1
	octave 4
	pitch_slide 1, 3, A#
	note A#, 1
	rest 1
	note F_, 2
	octave 5
	pitch_slide 1, 4, F_
	note F_, 1
	rest 1
	octave 4
	pitch_slide 1, 3, A#
	note A#, 1
	rest 1
	note G_, 4
	pitch_slide 1, 3, A#
	note A#, 1
	rest 1
	octave 5
	pitch_slide 1, 4, F_
	note F_, 1
	rest 1
	octave 4
	pitch_slide 1, 3, A#
	note A#, 1
	rest 1
	note F_, 2
	octave 5
	pitch_slide 1, 4, F_
	note F_, 1
	rest 1
	octave 4
	pitch_slide 1, 3, A#
	note A#, 1
	rest 1
	note G_, 4
	pitch_slide 1, 3, A#
	note A#, 1
	rest 1
	octave 5
	pitch_slide 1, 4, F_
	note F_, 1
	rest 1
	octave 4
	pitch_slide 1, 3, A#
	note A#, 1
	rest 1
	note A#, 2
	octave 5
	pitch_slide 1, 4, F_
	note F_, 1
	rest 1
	octave 4
	pitch_slide 1, 3, A#
	note A#, 1
	rest 1
	octave 5
	note C_, 4
	octave 4
	pitch_slide 1, 3, A#
	note A#, 1
	rest 1
	octave 5
	pitch_slide 1, 4, F_
	note F_, 1
	rest 1
	octave 4
	pitch_slide 1, 3, A#
	note A#, 1
	rest 1
	note A#, 2
	octave 5
	pitch_slide 1, 4, F_
	note F_, 1
	rest 1
	octave 4
	pitch_slide 1, 3, A#
	note A#, 1
	rest 1
	octave 5
	note C_, 4
	octave 4
	pitch_slide 1, 3, A#
	note A#, 1
	rest 1
	octave 5
	pitch_slide 1, 4, F_
	note F_, 1
	rest 1
	octave 4
	pitch_slide 1, 3, A#
	note A#, 1
	rest 1
	note G_, 2
	octave 5
	pitch_slide 1, 4, F_
	note F_, 1
	rest 1
	octave 4
	pitch_slide 1, 3, A#
	note A#, 1
	rest 1
	note A_, 4
	pitch_slide 1, 3, A#
	note A#, 1
	rest 1
	octave 5
	pitch_slide 1, 4, F_
	note F_, 1
	rest 1
	octave 4
	pitch_slide 1, 3, A#
	note A#, 1
	rest 1
	note G_, 2
	octave 5
	pitch_slide 1, 4, F_
	note F_, 1
	rest 1
	octave 4
	pitch_slide 1, 3, A#
	note A#, 1
	rest 1
	note A_, 4
	pitch_slide 1, 3, A#
	note A#, 1
	rest 1
	octave 5
	pitch_slide 1, 4, F_
	note F_, 1
	rest 1
	octave 4
	pitch_slide 1, 3, A#
	note A#, 1
	rest 1
	note D_, 2
	octave 5
	pitch_slide 1, 4, F_
	note F_, 1
	rest 1
	octave 4
	pitch_slide 1, 3, A#
	note A#, 1
	rest 1
	note C_, 4
	pitch_slide 1, 3, A#
	note A#, 1
	rest 1
	octave 5
	pitch_slide 1, 4, F_
	note F_, 1
	rest 1
	octave 4
	pitch_slide 1, 3, A#
	note A#, 1
	rest 1
	octave 3
	note B_, 2
	octave 5
	pitch_slide 1, 4, F_
	note F_, 1
	rest 1
	octave 4
	pitch_slide 1, 3, A#
	note A#, 1
	rest 1
	octave 3
	note A#, 4
	octave 4
	pitch_slide 1, 3, A#
	note A#, 1
	rest 1
	octave 5
	pitch_slide 1, 4, F_
	note F_, 1
	rest 1
	octave 4
	pitch_slide 1, 3, A#
	note A#, 1
	rest 1
	note F_, 2
	octave 5
	pitch_slide 1, 4, F_
	note F_, 1
	rest 1
	octave 4
	pitch_slide 1, 3, A#
	note A#, 1
	rest 1
	note G_, 4
	pitch_slide 1, 3, A#
	note A#, 1
	rest 1
	octave 5
	pitch_slide 1, 4, F_
	note F_, 1
	rest 1
	octave 4
	pitch_slide 1, 3, A#
	note A#, 1
	rest 1
	note F_, 2
	octave 5
	pitch_slide 1, 4, F_
	note F_, 1
	rest 1
	octave 4
	pitch_slide 1, 3, A#
	note A#, 1
	rest 1
	note G_, 4
	pitch_slide 1, 3, A#
	note A#, 1
	rest 1
	octave 5
	pitch_slide 1, 4, F_
	note F_, 1
	rest 1
	octave 4
	pitch_slide 1, 3, A#
	note A#, 1
	rest 1
	note A#, 2
	octave 5
	pitch_slide 1, 4, F_
	note F_, 1
	rest 1
	octave 4
	pitch_slide 1, 3, A#
	note A#, 1
	rest 1
	octave 5
	note C_, 4
	octave 4
	pitch_slide 1, 3, A#
	note A#, 1
	rest 1
	octave 5
	pitch_slide 1, 4, F_
	note F_, 1
	rest 1
	octave 4
	pitch_slide 1, 3, A#
	note A#, 1
	rest 1
	note A#, 2
	octave 5
	pitch_slide 1, 4, F_
	note F_, 1
	rest 1
	octave 4
	pitch_slide 1, 3, A#
	note A#, 1
	rest 1
	octave 5
	note C_, 4
	octave 4
	pitch_slide 1, 3, A#
	note A#, 1
	rest 1
	octave 5
	pitch_slide 1, 4, F_
	note F_, 1
	rest 1
	octave 4
	pitch_slide 1, 3, A#
	note A#, 1
	rest 1
	note A#, 2
	octave 5
	pitch_slide 1, 4, F_
	note F_, 1
	rest 1
	octave 4
	pitch_slide 1, 3, A#
	note A#, 1
	rest 1
	octave 5
	note C_, 4
	octave 4
	pitch_slide 1, 3, A#
	note A#, 1
	rest 1
	octave 5
	pitch_slide 1, 4, F_
	note F_, 1
	rest 1
	octave 4
	pitch_slide 1, 3, A#
	note A#, 1
	rest 1
	note A_, 2
	octave 5
	pitch_slide 1, 4, F_
	note F_, 1
	rest 1
	octave 4
	pitch_slide 1, 3, A#
	note A#, 1
	rest 1
	octave 5
	note C_, 4
	octave 4
	pitch_slide 1, 3, A#
	note A#, 1
	rest 1
	octave 5
	pitch_slide 1, 4, F_
	note F_, 1
	rest 1
	octave 4
	pitch_slide 1, 3, A#
	note A#, 1
	rest 1
	note A#, 2
	octave 5
	pitch_slide 1, 4, F_
	note F_, 1
	rest 1
	octave 4
	pitch_slide 1, 3, A#
	note A#, 1
	rest 1
	octave 5
	note D_, 4
	octave 4
	pitch_slide 1, 3, A#
	note A#, 1
	rest 1
	octave 5
	pitch_slide 1, 4, F_
	note F_, 1
	rest 1
	octave 4
	pitch_slide 1, 3, A#
	note A#, 1
	rest 3
	octave 5
	pitch_slide 1, 4, F_
	note F_, 1
	rest 1
	octave 4
	pitch_slide 1, 3, A#
	note A#, 1
	rest 5
	pitch_slide 1, 3, A#
	note A#, 1
	rest 1
	octave 5
	pitch_slide 1, 4, F_
	note F_, 1
	rest 1
	sound_call Music_Title_Ch3_Sub1
	sound_call Music_Title_Ch3_Sub1
	sound_call Music_Title_Ch3_Sub1
	sound_call Music_Title_Ch3_Sub1
	sound_call Music_Title_Ch3_Sub1
	sound_call Music_Title_Ch3_Sub1
	sound_call Music_Title_Ch3_Sub1
	octave 4
	pitch_slide 1, 3, A#
	note A#, 1
	rest 3
	octave 5
	pitch_slide 1, 4, F_
	note F_, 1
	rest 1
	octave 4
	pitch_slide 1, 3, A#
	note A#, 1
	rest 5
	pitch_slide 1, 3, A#
	note A#, 1
	rest 1
	octave 5
	pitch_slide 1, 4, F_
	note F_, 1
	rest 1
	octave 4
	pitch_slide 1, 3, A#
	note A#, 1
	rest 3
	octave 5
	pitch_slide 1, 4, F_
	note F_, 1
	rest 1
	octave 4
	pitch_slide 1, 3, A#
	note A#, 1
	rest 1
	octave 5
	pitch_slide 1, 4, F_
	note F_, 1
	rest 1
	octave 4
	pitch_slide 1, 3, A#
	note A#, 1
	rest 1
	octave 4
	pitch_slide 1, 3, F_
	note F_, 1
	rest 1
	octave 3
	pitch_slide 1, 2, A#
	note A#, 1
	rest 3
	sound_ret

Music_Title_Ch3_Sub1:
	octave 4
	pitch_slide 1, 3, A#
	note A#, 1
	rest 3
	octave 5
	pitch_slide 1, 4, F_
	note F_, 1
	rest 1
	octave 4
	pitch_slide 1, 3, A#
	note A#, 1
	rest 5
	pitch_slide 1, 3, A#
	note A#, 1
	rest 1
	octave 5
	pitch_slide 1, 4, F_
	note F_, 1
	rest 1
	octave 4
	pitch_slide 1, 3, A#
	note A#, 1
	rest 3
	octave 5
	pitch_slide 1, 4, F_
	note F_, 1
	rest 1
	octave 4
	pitch_slide 1, 3, A#
	note A#, 1
	rest 5
	pitch_slide 1, 3, A#
	note A#, 1
	rest 1
	octave 5
	pitch_slide 1, 4, F_
	note F_, 1
	rest 1
	sound_ret

Music_Title_Ch4:
	channel_volume 15
	drum_speed 12
	sound_call Music_Title_Ch4_Sub1
	sound_call Music_Title_Ch4_Sub3
	sound_call Music_Title_Ch4_Sub2
	sound_call Music_Title_Ch4_Sub4
	sound_call Music_Title_Ch4_Sub3
	sound_call Music_Title_Ch4_Sub1
	sound_call Music_Title_Ch4_Sub4
	sound_call Music_Title_Ch4_Sub1
	sound_call Music_Title_Ch4_Sub3
	sound_call Music_Title_Ch4_Sub2
	sound_call Music_Title_Ch4_Sub1
	drum_note 11, 2
	drum_note 18, 2
	drum_note 12, 2
	drum_note 18, 2
	drum_note 11, 1
	drum_note 12, 1
	drum_note 18, 2
	drum_note 12, 2
	drum_note 12, 1
	drum_note 12, 1
	drum_note 11, 2
	drum_note 18, 1
	drum_note 18, 1
	drum_note 12, 2
	drum_note 18, 1
	drum_note 18, 1
	drum_note 11, 2
	drum_note 11, 1
	drum_note 18, 1
	drum_note 12, 2
	drum_note 18, 1
	drum_note 18, 1
	drum_note 11, 2
	drum_note 18, 1
	drum_note 18, 1
	drum_note 12, 2
	drum_note 18, 1
	drum_note 18, 1
	drum_note 11, 2
	drum_note 18, 1
	drum_note 18, 1
	drum_note 12, 2
	drum_note 11, 1
	drum_note 18, 1
	drum_note 11, 2
	drum_note 18, 1
	drum_note 18, 1
	drum_note 12, 2
	drum_note 18, 1
	drum_note 18, 1
	drum_note 11, 2
	drum_note 18, 1
	drum_note 18, 1
	drum_note 12, 2
	drum_note 18, 1
	drum_note 18, 1
	drum_note 11, 2
	drum_note 18, 1
	drum_note 18, 1
	drum_note 12, 2
	drum_note 18, 1
	drum_note 18, 1
	drum_note 11, 2
	drum_note 18, 1
	drum_note 18, 1
	drum_note 12, 2
	drum_note 11, 1
	drum_note 12, 1
	drum_note 11, 2
	drum_note 18, 1
	drum_note 18, 1
	drum_note 12, 2
	drum_note 18, 1
	drum_note 18, 1
	drum_note 11, 2
	drum_note 18, 1
	drum_note 18, 1
	drum_note 12, 2
	drum_note 12, 1
	drum_note 18, 1
	drum_note 11, 2
	drum_note 18, 1
	drum_note 18, 1
	drum_note 12, 2
	drum_note 18, 1
	drum_note 18, 1
	drum_note 11, 2
	drum_note 18, 1
	drum_note 18, 1
	drum_note 12, 2
	drum_note 18, 1
	drum_note 12, 1
	drum_note 11, 2
	drum_note 18, 1
	drum_note 18, 1
	drum_note 12, 2
	drum_note 18, 1
	drum_note 18, 1
	drum_note 11, 1
	drum_note 12, 1
	drum_note 18, 1
	drum_note 18, 1
	drum_note 12, 2
	drum_note 11, 1
	drum_note 18, 1
	drum_note 11, 2
	drum_note 18, 1
	drum_note 18, 1
	drum_note 12, 2
	drum_note 12, 1
	drum_note 12, 1
	drum_note 11, 1
	rest 7
	sound_ret

Music_Title_Ch4_Sub1:
	drum_note 11, 2
	drum_note 18, 2
	drum_note 12, 2
	drum_note 18, 2
	drum_note 11, 2
	drum_note 18, 2
	drum_note 12, 2
	drum_note 18, 1
	drum_note 12, 1
	sound_ret

Music_Title_Ch4_Sub2:
	drum_note 11, 2
	drum_note 18, 2
	drum_note 12, 2
	drum_note 18, 2
	drum_note 11, 2
	drum_note 18, 2
	drum_note 12, 2
	drum_note 18, 1
	drum_note 13, 1
	sound_ret

Music_Title_Ch4_Sub3:
	drum_note 11, 2
	drum_note 18, 2
	drum_note 12, 2
	drum_note 18, 2
	drum_note 11, 2
	drum_note 18, 2
	drum_note 12, 2
	drum_note 18, 2
	sound_ret

Music_Title_Ch4_Sub4:
	drum_note 11, 2
	drum_note 18, 2
	drum_note 12, 2
	drum_note 18, 2
	drum_note 11, 2
	drum_note 18, 2
	drum_note 12, 2
	drum_note 12, 1
	drum_note 12, 1
	sound_ret
