Music_Unused_Ch2:
	channel_volume 12
	note_type 12, 1, 9, 1, 4
	octave 3
	note G_, 6
	note G_, 1
	note G#, 1
	note A#, 2
	octave 4
	note C_, 2
	note D#, 2
	note F_, 2
	note G_, 8
	rest 16
	rest 8
	sound_ret

Music_Unused_Ch1:
	tempo 160
	channel_volume 13
	note_type 12, 1, 9, 2, 6
	octave 4
	note D#, 6
	note D#, 1
	note D#, 1
	note D#, 2
	note F_, 2
	note A#, 2
	octave 5
	note D_, 2
	note D#, 8
	rest 16
	rest 8
	sound_ret

Music_Unused_Ch3:
	hill_type 12, 0, 33
	octave 5
	note D#, 6
	note D#, 1
	note F_, 1
	note G_, 2
	note A#, 2
	octave 6
	note C_, 2
	note D_, 2
	note D#, 8
	rest 16
	rest 8
	sound_ret
